{"glyphs":{"0":{"ha":904,"x_min":0,"x_max":0,"o":"m 454 -17 b 775 50 642 -17 729 3 b 861 529 832 110 861 226 b 771 1019 861 836 831 960 b 454 1088 724 1068 640 1088 b 136 1019 265 1088 182 1067 b 43 529 76 957 43 835 b 131 50 43 228 72 111 b 454 -17 178 4 264 -17 z m 453 188 b 339 215 389 188 357 197 b 301 529 314 242 301 315 b 342 857 301 751 314 829 b 453 883 360 876 390 883 b 565 856 517 883 546 875 b 603 529 590 831 603 751 b 565 215 603 315 592 242 b 453 188 547 197 517 188 z "},"1":{"ha":632,"x_min":0,"x_max":0,"o":"m 335 -1 b 536 -1 401 -4 469 -4 b 560 24 553 0 560 7 l 563 1047 b 539 1071 563 1064 556 1071 b 344 1071 476 1074 404 1074 b 304 1058 329 1071 317 1067 l 31 872 b 24 839 17 863 15 853 l 107 719 b 140 713 117 706 126 703 l 294 814 b 314 803 308 824 314 819 l 311 24 b 335 -1 311 7 318 0 z "},"2":{"ha":835,"x_min":0,"x_max":0,"o":"m 68 0 b 785 0 260 -3 588 -3 b 808 24 801 0 808 7 l 808 183 b 785 207 808 200 801 207 b 321 201 692 206 449 200 b 303 219 308 201 303 207 b 329 319 301 271 310 297 b 500 393 349 340 393 363 b 731 508 624 438 690 465 b 801 761 778 558 800 628 b 726 1022 801 890 775 976 b 422 1086 681 1065 603 1086 b 113 1013 239 1086 158 1060 b 26 732 65 964 39 879 b 49 708 25 715 32 708 l 253 711 b 279 735 269 711 276 718 b 315 867 289 814 297 849 b 418 890 333 883 357 890 b 526 867 489 890 513 882 b 549 772 542 851 549 821 b 524 663 549 717 542 683 b 374 586 504 640 468 618 b 121 471 214 543 163 514 b 40 203 63 408 40 340 b 44 24 40 133 42 75 b 68 0 44 7 51 0 z "},"3":{"ha":867,"x_min":0,"x_max":0,"o":"m 419 -18 b 754 53 629 -17 710 8 b 824 308 799 97 824 179 b 746 547 824 458 801 507 b 704 590 721 567 704 574 b 742 640 704 607 718 615 b 799 819 779 681 797 719 b 738 1022 799 924 775 986 b 418 1088 694 1065 631 1088 b 99 1014 218 1088 147 1061 b 19 764 58 972 28 878 b 42 740 19 747 25 740 l 249 740 b 272 764 264 742 271 749 b 301 869 279 822 286 853 b 414 896 317 886 339 896 b 519 872 483 896 506 886 b 539 785 532 861 538 833 b 511 678 539 732 531 697 b 415 647 493 657 471 649 l 261 646 b 238 622 244 646 238 639 l 238 476 b 261 453 238 460 244 453 l 415 454 b 542 426 501 456 521 449 b 567 313 560 410 567 371 b 547 200 567 243 563 217 b 426 175 531 183 503 175 b 313 200 349 175 329 186 b 282 321 294 217 288 256 b 257 342 281 336 272 342 l 43 342 b 19 318 26 342 19 335 b 100 53 25 197 57 94 b 419 -18 143 8 215 -18 z "},"4":{"ha":858,"x_min":0,"x_max":0,"o":"m 479 0 l 686 0 b 710 24 703 0 710 7 l 710 175 b 728 193 710 188 715 193 l 826 193 b 850 217 843 193 850 200 l 850 376 b 826 400 850 393 843 400 l 728 400 b 710 418 715 400 710 406 l 715 1047 b 692 1071 715 1064 708 1071 l 463 1071 b 426 1054 447 1071 436 1065 b 14 400 293 890 115 561 b 1 360 6 388 1 375 l 1 217 b 25 193 1 200 8 193 l 442 193 b 460 175 454 193 460 188 b 456 24 460 128 457 65 b 479 0 456 7 463 0 z m 244 421 l 436 758 b 467 765 443 776 460 776 l 463 418 b 444 400 463 406 457 400 l 256 400 b 244 421 239 400 236 407 z "},"5":{"ha":825,"x_min":0,"x_max":0,"o":"m 415 -14 b 726 47 621 -14 688 7 b 794 357 771 93 794 174 b 726 672 794 543 774 628 b 510 725 697 703 644 725 b 311 671 415 725 372 711 b 281 688 292 660 282 665 l 285 842 b 304 860 285 854 292 860 l 753 858 b 775 881 769 857 776 864 l 775 1047 b 751 1071 775 1064 768 1071 l 96 1071 b 72 1047 79 1071 72 1064 l 50 488 b 72 464 49 471 56 464 l 257 461 b 296 475 272 460 285 465 b 317 492 303 482 310 488 b 413 514 336 504 357 513 b 515 493 479 517 501 507 b 539 353 533 476 539 438 b 513 203 539 253 531 219 b 413 179 501 192 478 179 b 313 201 349 179 325 188 b 285 311 300 214 292 236 b 260 335 283 328 276 335 l 54 335 b 32 311 38 335 31 328 b 108 47 40 164 65 92 b 415 -14 147 10 219 -14 z "},"6":{"ha":893,"x_min":0,"x_max":0,"o":"m 454 -18 b 781 50 660 -18 736 6 b 853 347 828 99 853 183 b 786 635 853 500 829 592 b 563 686 749 672 689 686 b 328 625 440 686 397 669 b 296 643 308 615 297 621 b 332 865 299 781 310 843 b 443 892 350 882 378 892 b 558 868 524 892 543 882 b 585 801 569 858 576 836 b 613 778 588 785 596 778 l 836 778 b 856 801 853 778 858 785 b 775 1015 836 913 810 982 b 436 1089 726 1064 649 1089 b 135 1015 254 1089 181 1061 b 43 569 74 954 43 844 b 128 53 43 240 69 114 b 454 -18 175 4 253 -18 z m 450 176 b 321 206 374 176 340 186 b 299 335 306 222 299 258 b 336 450 299 396 313 431 b 460 485 367 476 394 485 b 576 463 544 485 564 476 b 600 343 593 447 600 413 b 576 203 600 258 593 221 b 450 176 561 189 531 176 z "},"7":{"ha":744,"x_min":0,"x_max":0,"o":"m 188 0 l 426 0 b 451 22 442 0 450 7 b 713 824 490 274 596 586 b 724 868 719 838 724 851 l 725 1047 b 701 1071 725 1064 718 1071 l 49 1071 b 25 1047 32 1071 25 1064 l 24 874 b 47 850 24 857 31 850 l 443 854 b 456 835 460 854 464 849 b 165 26 340 629 214 286 b 188 0 163 8 169 0 z "},"8":{"ha":926,"x_min":0,"x_max":0,"o":"m 463 -17 b 814 46 685 -17 772 3 b 882 307 861 94 882 167 b 788 561 882 446 863 503 b 785 608 767 576 765 590 b 864 817 846 668 864 714 b 800 1022 864 919 844 981 b 461 1088 756 1065 672 1088 b 128 1022 254 1088 171 1065 b 63 817 82 978 63 918 b 144 607 63 715 82 668 b 140 560 164 589 163 575 b 44 307 63 501 44 446 b 113 44 44 161 67 90 b 463 -17 156 3 243 -17 z m 461 175 b 321 200 363 175 336 183 b 297 325 304 218 297 251 b 326 447 297 394 308 428 b 460 471 343 463 365 471 b 599 447 563 471 583 463 b 629 325 618 428 629 397 b 606 200 629 253 622 217 b 461 175 589 183 564 175 z m 463 658 b 342 682 385 658 357 667 b 314 785 322 700 314 729 b 335 872 314 828 319 856 b 463 894 351 886 372 894 b 592 872 556 894 576 886 b 613 782 607 856 613 829 b 586 682 613 728 604 700 b 463 658 571 668 547 658 z "},"9":{"ha":878,"x_min":0,"x_max":0,"o":"m 425 1089 b 99 1021 219 1089 143 1065 b 26 724 51 972 26 888 b 93 436 26 571 50 479 b 317 385 131 399 190 385 b 551 446 439 385 482 401 b 583 428 571 456 582 450 b 547 206 581 290 569 228 b 436 179 529 189 501 179 b 321 203 356 179 336 189 b 294 269 310 213 303 235 b 267 293 292 286 283 293 l 43 293 b 24 269 26 293 21 286 b 104 56 43 158 69 89 b 443 -18 153 7 231 -18 b 744 56 625 -18 699 10 b 836 501 806 117 836 226 b 751 1018 836 831 810 957 b 425 1089 704 1067 626 1089 z m 429 894 b 558 865 506 894 539 885 b 581 736 574 849 581 813 b 543 621 581 675 567 640 b 419 586 513 594 485 586 b 303 608 335 586 315 594 b 279 728 286 624 279 658 b 303 868 279 813 286 850 b 429 894 318 882 349 894 z "}," ":{"ha":240,"x_min":0,"x_max":0,"o":""}," ":{"ha":240,"x_min":0,"x_max":0,"o":""},"A":{"ha":939,"x_min":0,"x_max":0,"o":"m 33 -1 l 232 -1 b 260 21 247 -1 256 6 l 301 189 b 329 211 306 204 314 211 l 583 211 b 611 189 599 211 607 204 l 651 21 b 679 -1 656 6 664 -1 b 906 -1 756 -4 831 -4 b 925 24 924 -1 931 7 b 633 1049 842 351 732 744 b 603 1072 629 1064 619 1072 b 344 1071 533 1074 413 1072 b 314 1049 329 1071 319 1064 b 14 24 226 774 100 361 b 33 -1 10 7 17 -1 z m 361 435 l 439 750 b 468 765 443 771 458 775 b 551 435 496 665 524 550 b 533 411 556 418 550 411 l 379 411 b 361 435 363 411 357 418 z "},"Á":{"ha":939,"x_min":0,"x_max":0,"o":"m 33 -1 l 232 -1 b 260 21 247 -1 256 6 l 301 189 b 329 211 306 204 314 211 l 583 211 b 611 189 599 211 607 204 l 651 21 b 679 -1 656 6 664 -1 b 906 -1 756 -4 831 -4 b 925 24 924 -1 931 7 b 633 1049 842 351 732 744 b 603 1072 629 1064 619 1072 b 344 1071 533 1074 413 1072 b 314 1049 329 1071 319 1064 b 14 24 226 774 100 361 b 33 -1 10 7 17 -1 z m 374 1139 l 479 1139 b 514 1158 494 1139 506 1144 l 629 1351 b 617 1374 638 1368 635 1374 l 482 1374 b 450 1354 467 1374 457 1368 l 360 1163 b 374 1139 351 1146 356 1139 z m 361 435 l 439 750 b 468 765 443 771 458 775 b 551 435 496 665 524 550 b 533 411 556 418 550 411 l 379 411 b 361 435 363 411 357 418 z "},"Â":{"ha":939,"x_min":0,"x_max":0,"o":"m 33 -1 l 232 -1 b 260 21 247 -1 256 6 l 301 189 b 329 211 306 204 314 211 l 583 211 b 611 189 599 211 607 204 l 651 21 b 679 -1 656 6 664 -1 b 906 -1 756 -4 831 -4 b 925 24 924 -1 931 7 b 633 1049 842 351 732 744 b 603 1072 629 1064 619 1072 b 344 1071 533 1074 413 1072 b 314 1049 329 1071 319 1064 b 14 24 226 774 100 361 b 33 -1 10 7 17 -1 z m 371 1354 l 249 1160 b 261 1138 240 1144 243 1138 l 376 1138 b 411 1157 392 1138 403 1143 l 465 1242 l 518 1157 b 553 1138 526 1143 538 1138 l 667 1138 b 679 1160 685 1138 688 1144 l 561 1353 b 526 1372 553 1367 542 1372 l 406 1372 b 371 1354 390 1372 381 1367 z m 361 435 l 439 750 b 468 765 443 771 458 775 b 551 435 496 665 524 550 b 533 411 556 418 550 411 l 379 411 b 361 435 363 411 357 418 z "},"Ä":{"ha":939,"x_min":0,"x_max":0,"o":"m 33 -1 l 232 -1 b 260 21 247 -1 256 6 l 301 189 b 329 211 306 204 314 211 l 583 211 b 611 189 599 211 607 204 l 651 21 b 679 -1 656 6 664 -1 b 906 -1 756 -4 831 -4 b 925 24 924 -1 931 7 b 633 1049 842 351 732 744 b 603 1072 629 1064 619 1072 b 344 1071 533 1074 413 1072 b 314 1049 329 1071 319 1064 b 14 24 226 774 100 361 b 33 -1 10 7 17 -1 z m 514 1147 l 649 1147 b 672 1171 665 1147 672 1154 l 672 1308 b 649 1332 672 1325 665 1332 l 514 1332 b 490 1308 497 1332 490 1325 l 490 1171 b 514 1147 490 1154 497 1147 z m 286 1147 l 419 1147 b 443 1171 435 1147 443 1154 l 443 1308 b 419 1332 443 1325 436 1332 l 286 1332 b 263 1308 271 1332 263 1325 l 263 1171 b 286 1147 263 1154 269 1147 z m 361 435 l 439 750 b 468 765 443 771 458 775 b 551 435 496 665 524 550 b 533 411 556 418 550 411 l 379 411 b 361 435 363 411 357 418 z "},"À":{"ha":939,"x_min":0,"x_max":0,"o":"m 33 -1 l 232 -1 b 260 21 247 -1 256 6 l 301 189 b 329 211 306 204 314 211 l 583 211 b 611 189 599 211 607 204 l 651 21 b 679 -1 656 6 664 -1 b 906 -1 756 -4 831 -4 b 925 24 924 -1 931 7 b 633 1049 842 351 732 744 b 603 1072 629 1064 619 1072 b 344 1071 533 1074 413 1072 b 314 1049 329 1071 319 1064 b 14 24 226 774 100 361 b 33 -1 10 7 17 -1 z m 578 1163 l 492 1354 b 460 1374 486 1368 476 1374 l 322 1374 b 310 1351 304 1374 301 1367 l 421 1158 b 454 1139 428 1144 439 1139 l 563 1139 b 578 1163 581 1139 586 1146 z m 361 435 l 439 750 b 468 765 443 771 458 775 b 551 435 496 665 524 550 b 533 411 556 418 550 411 l 379 411 b 361 435 363 411 357 418 z "},"Å":{"ha":939,"x_min":0,"x_max":0,"o":"m 33 -1 l 232 -1 b 260 21 247 -1 256 6 l 301 189 b 329 211 306 204 314 211 l 583 211 b 611 189 599 211 607 204 l 651 21 b 679 -1 656 6 664 -1 b 906 -1 756 -4 831 -4 b 925 24 924 -1 931 7 b 633 1049 842 351 732 744 b 603 1072 629 1064 619 1072 b 344 1071 533 1074 413 1072 b 314 1049 329 1071 319 1064 b 14 24 226 774 100 361 b 33 -1 10 7 17 -1 z m 467 1110 b 632 1269 564 1110 632 1176 b 467 1428 632 1361 564 1428 b 300 1269 368 1428 300 1360 b 467 1110 300 1178 368 1110 z m 467 1213 b 421 1269 439 1213 421 1233 b 467 1325 421 1304 439 1325 b 511 1269 493 1325 513 1304 b 467 1213 513 1233 493 1213 z m 361 435 l 439 750 b 468 765 443 771 458 775 b 551 435 496 665 524 550 b 533 411 556 418 550 411 l 379 411 b 361 435 363 411 357 418 z "},"Ã":{"ha":939,"x_min":0,"x_max":0,"o":"m 33 -1 l 232 -1 b 260 21 247 -1 256 6 l 301 189 b 329 211 306 204 314 211 l 583 211 b 611 189 599 211 607 204 l 651 21 b 679 -1 656 6 664 -1 b 906 -1 756 -4 831 -4 b 925 24 924 -1 931 7 b 633 1049 842 351 732 744 b 603 1072 629 1064 619 1072 b 344 1071 533 1074 413 1072 b 314 1049 329 1071 319 1064 b 14 24 226 774 100 361 b 33 -1 10 7 17 -1 z m 576 1125 b 660 1157 611 1125 639 1136 b 674 1197 669 1169 674 1181 l 674 1288 b 656 1296 674 1306 668 1308 b 581 1269 631 1275 613 1269 b 496 1290 551 1269 526 1279 b 388 1317 465 1303 429 1317 b 303 1285 356 1317 325 1306 b 288 1246 293 1274 288 1261 l 288 1153 b 307 1144 288 1135 294 1132 b 383 1171 335 1167 353 1171 b 469 1150 413 1171 439 1161 b 576 1125 500 1138 536 1125 z m 361 435 l 439 750 b 468 765 443 771 458 775 b 551 435 496 665 524 550 b 533 411 556 418 550 411 l 379 411 b 361 435 363 411 357 418 z "},"B":{"ha":892,"x_min":0,"x_max":0,"o":"m 94 0 l 532 0 b 792 60 688 0 746 14 b 847 304 835 103 847 164 b 793 518 847 424 833 476 b 753 567 772 539 753 549 b 785 617 753 583 765 593 b 835 808 818 653 835 694 b 779 1014 835 911 821 972 b 515 1071 736 1057 686 1071 l 94 1071 b 71 1047 78 1071 71 1064 b 71 24 67 817 67 325 b 94 0 71 7 78 0 z m 321 206 b 321 444 319 265 319 381 b 339 463 321 456 326 463 l 493 463 b 569 443 532 463 554 458 b 590 326 585 428 590 404 b 572 207 590 240 585 221 b 497 188 558 194 533 188 l 339 188 b 321 206 328 188 321 193 z m 319 656 b 321 865 318 713 319 810 b 340 883 322 878 328 883 l 489 883 b 561 867 524 883 547 881 b 579 761 575 853 579 831 b 557 657 579 697 572 672 b 492 638 543 643 522 638 l 338 638 b 319 656 326 638 319 643 z "},"C":{"ha":888,"x_min":0,"x_max":0,"o":"m 449 -17 b 769 51 639 -17 722 3 b 851 419 818 101 842 203 b 826 446 853 438 844 446 l 615 447 b 592 425 599 447 592 440 b 556 215 585 283 576 235 b 450 188 538 196 508 188 b 340 215 386 188 357 197 b 301 531 315 239 301 318 b 342 856 301 743 317 831 b 450 882 360 874 388 882 b 554 854 508 882 536 874 b 590 668 572 833 581 786 b 615 646 592 653 599 646 l 826 646 b 851 672 844 646 853 654 b 767 1019 840 874 817 969 b 449 1086 719 1065 636 1086 b 139 1015 258 1086 186 1064 b 43 528 76 954 43 810 b 136 54 43 254 76 117 b 449 -17 185 4 265 -17 z "},"Ç":{"ha":888,"x_min":0,"x_max":0,"o":"m 43 528 b 136 54 43 254 76 117 b 368 -15 176 13 240 -10 l 299 -186 b 315 -211 292 -203 297 -211 l 446 -211 b 475 -189 461 -211 471 -204 l 531 -15 b 769 51 664 -10 729 10 b 851 419 818 101 842 203 b 826 446 853 438 844 446 l 615 447 b 592 425 599 447 592 440 b 556 215 585 283 576 235 b 450 188 538 196 508 188 b 340 215 386 188 357 197 b 301 531 315 239 301 318 b 342 856 301 743 317 831 b 450 882 360 874 388 882 b 554 854 508 882 536 874 b 590 668 572 833 581 786 b 615 646 592 653 599 646 l 826 646 b 851 672 844 646 853 654 b 767 1019 840 874 817 969 b 449 1086 719 1065 636 1086 b 139 1015 258 1086 186 1064 b 43 528 76 954 43 810 z "},"D":{"ha":878,"x_min":0,"x_max":0,"o":"m 94 0 l 522 0 b 761 61 654 0 717 17 b 838 532 814 114 838 196 b 750 1013 838 861 806 958 b 493 1071 704 1058 633 1071 l 94 1071 b 71 1047 78 1071 71 1064 b 71 24 67 811 67 258 b 94 0 71 7 78 0 z m 319 219 b 319 850 318 367 318 708 b 338 868 319 861 325 868 l 463 868 b 544 844 496 868 528 863 b 582 525 569 821 582 758 b 551 228 582 288 571 247 b 464 201 533 210 504 201 l 338 201 b 319 219 325 201 319 207 z "},"Ð":{"ha":878,"x_min":0,"x_max":0,"o":"m 94 0 l 522 0 b 761 61 654 0 717 17 b 838 532 814 114 838 196 b 750 1013 838 861 806 958 b 493 1071 704 1058 633 1071 l 94 1071 b 71 1047 78 1071 71 1064 b 68 614 69 944 68 783 l 11 614 b -12 590 -4 614 -12 607 l -12 482 b 11 458 -12 465 -6 458 l 68 458 b 71 24 68 288 69 126 b 94 0 71 7 78 0 z m 319 219 l 318 458 l 385 458 b 408 482 401 458 408 464 l 408 590 b 385 614 408 607 401 614 l 318 614 l 319 850 b 338 868 319 861 325 868 l 463 868 b 544 844 496 868 528 863 b 582 525 569 821 582 758 b 551 228 582 288 571 247 b 464 201 533 210 504 201 l 338 201 b 319 219 325 201 319 207 z "},"E":{"ha":767,"x_min":0,"x_max":0,"o":"m 96 0 l 694 0 b 718 24 711 0 718 7 l 718 179 b 694 203 718 196 711 203 l 338 200 b 318 218 325 200 319 206 l 318 432 b 338 450 319 444 325 450 l 676 450 b 700 474 693 450 700 457 l 700 617 b 676 640 700 633 693 640 l 338 640 b 318 658 325 640 319 646 l 318 851 b 338 871 319 864 325 871 b 693 867 438 869 590 867 b 717 890 708 867 717 872 l 717 1047 b 693 1071 717 1063 710 1071 l 94 1071 b 71 1047 79 1071 71 1064 b 72 24 67 817 65 269 b 96 0 72 7 79 0 z "},"É":{"ha":767,"x_min":0,"x_max":0,"o":"m 96 0 l 694 0 b 718 24 711 0 718 7 l 718 179 b 694 203 718 196 711 203 l 338 200 b 318 218 325 200 319 206 l 318 432 b 338 450 319 444 325 450 l 676 450 b 700 474 693 450 700 457 l 700 617 b 676 640 700 633 693 640 l 338 640 b 318 658 325 640 319 646 l 318 851 b 338 871 319 864 325 871 b 693 867 438 869 590 867 b 717 890 708 867 717 872 l 717 1047 b 693 1071 717 1063 710 1071 l 94 1071 b 71 1047 79 1071 71 1064 b 72 24 67 817 65 269 b 96 0 72 7 79 0 z m 313 1139 l 418 1139 b 453 1158 433 1139 444 1144 l 568 1351 b 556 1374 576 1368 574 1374 l 421 1374 b 389 1354 406 1374 396 1368 l 299 1163 b 313 1139 290 1146 294 1139 z "},"Ê":{"ha":767,"x_min":0,"x_max":0,"o":"m 96 0 l 694 0 b 718 24 711 0 718 7 l 718 179 b 694 203 718 196 711 203 l 338 200 b 318 218 325 200 319 206 l 318 432 b 338 450 319 444 325 450 l 676 450 b 700 474 693 450 700 457 l 700 617 b 676 640 700 633 693 640 l 338 640 b 318 658 325 640 319 646 l 318 851 b 338 871 319 864 325 871 b 693 867 438 869 590 867 b 717 890 708 867 717 872 l 717 1047 b 693 1071 717 1063 710 1071 l 94 1071 b 71 1047 79 1071 71 1064 b 72 24 67 817 65 269 b 96 0 72 7 79 0 z m 310 1354 l 188 1160 b 200 1138 179 1144 182 1138 l 315 1138 b 350 1157 331 1138 342 1143 l 404 1242 l 457 1157 b 492 1138 465 1143 476 1138 l 606 1138 b 618 1160 624 1138 626 1144 l 500 1353 b 465 1372 492 1367 481 1372 l 344 1372 b 310 1354 329 1372 319 1367 z "},"Ë":{"ha":767,"x_min":0,"x_max":0,"o":"m 96 0 l 694 0 b 718 24 711 0 718 7 l 718 179 b 694 203 718 196 711 203 l 338 200 b 318 218 325 200 319 206 l 318 432 b 338 450 319 444 325 450 l 676 450 b 700 474 693 450 700 457 l 700 617 b 676 640 700 633 693 640 l 338 640 b 318 658 325 640 319 646 l 318 851 b 338 871 319 864 325 871 b 693 867 438 869 590 867 b 717 890 708 867 717 872 l 717 1047 b 693 1071 717 1063 710 1071 l 94 1071 b 71 1047 79 1071 71 1064 b 72 24 67 817 65 269 b 96 0 72 7 79 0 z m 453 1147 l 588 1147 b 611 1171 604 1147 611 1154 l 611 1308 b 588 1332 611 1325 604 1332 l 453 1332 b 429 1308 436 1332 429 1325 l 429 1171 b 453 1147 429 1154 436 1147 z m 225 1147 l 358 1147 b 382 1171 374 1147 382 1154 l 382 1308 b 358 1332 382 1325 375 1332 l 225 1332 b 201 1308 210 1332 201 1325 l 201 1171 b 225 1147 201 1154 208 1147 z "},"È":{"ha":767,"x_min":0,"x_max":0,"o":"m 96 0 l 694 0 b 718 24 711 0 718 7 l 718 179 b 694 203 718 196 711 203 l 338 200 b 318 218 325 200 319 206 l 318 432 b 338 450 319 444 325 450 l 676 450 b 700 474 693 450 700 457 l 700 617 b 676 640 700 633 693 640 l 338 640 b 318 658 325 640 319 646 l 318 851 b 338 871 319 864 325 871 b 693 867 438 869 590 867 b 717 890 708 867 717 872 l 717 1047 b 693 1071 717 1063 710 1071 l 94 1071 b 71 1047 79 1071 71 1064 b 72 24 67 817 65 269 b 96 0 72 7 79 0 z m 515 1163 l 429 1354 b 397 1374 424 1368 414 1374 l 260 1374 b 247 1351 242 1374 239 1367 l 358 1158 b 392 1139 365 1144 376 1139 l 500 1139 b 515 1163 518 1139 524 1146 z "},"F":{"ha":747,"x_min":0,"x_max":0,"o":"m 97 0 l 300 0 b 322 24 315 0 324 7 l 318 386 b 336 404 317 397 322 404 l 700 403 b 724 426 715 403 724 410 l 724 583 b 700 607 724 599 717 607 l 336 606 b 317 624 324 606 317 611 l 319 850 b 338 868 319 861 325 868 b 704 863 439 867 624 863 b 728 886 719 863 728 869 l 728 1047 b 704 1071 728 1063 721 1071 l 97 1071 b 72 1047 81 1071 72 1064 b 72 24 67 825 65 275 b 97 0 72 7 81 0 z "},"G":{"ha":904,"x_min":0,"x_max":0,"o":"m 401 -17 b 661 64 524 -17 585 0 b 696 50 679 76 690 72 l 699 24 b 725 0 701 7 708 0 l 824 0 b 847 24 839 0 847 7 b 842 576 847 136 846 454 b 818 600 842 592 835 600 l 463 600 b 440 576 447 600 439 593 l 440 435 b 464 411 440 419 446 411 l 578 411 b 596 393 590 411 596 407 b 554 224 596 282 585 254 b 442 183 529 199 497 185 b 340 210 385 183 358 192 b 301 519 315 238 301 313 b 342 856 303 744 315 828 b 458 885 361 875 399 885 b 561 858 519 885 547 874 b 596 749 579 842 589 804 b 621 726 597 733 604 726 l 824 726 b 846 751 842 726 849 733 b 767 1017 832 897 807 975 b 456 1088 721 1063 638 1088 b 140 1015 268 1088 189 1064 b 43 526 75 950 43 807 b 140 43 43 247 76 107 b 401 -17 183 3 250 -17 z "},"H":{"ha":924,"x_min":0,"x_max":0,"o":"m 93 0 l 303 0 b 326 24 318 0 326 7 b 328 408 325 126 325 301 b 346 426 328 421 333 426 l 581 426 b 599 408 593 426 599 421 b 597 24 601 300 600 138 b 621 0 597 7 604 0 l 831 0 b 854 24 846 0 854 7 b 849 1047 857 282 854 796 b 825 1071 849 1064 842 1071 l 624 1071 b 600 1047 607 1071 600 1064 b 599 654 600 929 601 769 b 581 636 599 642 593 636 l 346 636 b 326 654 333 636 328 642 b 322 1047 322 749 322 942 b 299 1071 322 1064 315 1071 l 99 1071 b 75 1047 82 1071 75 1064 b 69 24 68 797 65 293 b 93 0 69 7 76 0 z "},"I":{"ha":386,"x_min":0,"x_max":0,"o":"m 94 0 b 292 0 157 -1 229 -1 b 315 24 307 0 315 7 b 315 1047 321 314 319 794 b 292 1071 315 1064 308 1071 b 94 1071 229 1072 158 1072 b 71 1047 78 1071 71 1064 b 71 24 67 794 65 314 b 94 0 71 7 78 0 z "},"Ĳ":{"ha":1204,"x_min":0,"x_max":0,"o":"m 94 0 b 292 0 157 -1 229 -1 b 315 24 307 0 315 7 b 315 1047 321 314 319 794 b 292 1071 315 1064 308 1071 b 94 1071 229 1072 158 1072 b 71 1047 78 1071 71 1064 b 71 24 67 794 65 314 b 94 0 71 7 78 0 z m 783 -18 b 1079 54 949 -18 1033 7 b 1143 364 1128 101 1143 165 b 1139 1047 1144 644 1143 869 b 1115 1072 1139 1063 1132 1071 b 908 1071 1058 1074 965 1074 b 885 1046 893 1071 885 1063 b 892 374 886 864 892 628 b 869 211 892 247 883 226 b 779 183 853 194 825 183 b 692 208 729 183 707 193 b 657 400 676 224 667 244 b 632 425 657 417 649 425 b 428 425 578 428 479 428 b 404 400 411 425 404 417 b 481 54 413 172 432 104 b 783 -18 529 6 618 -18 z "},"Í":{"ha":386,"x_min":0,"x_max":0,"o":"m 94 0 b 292 0 157 -1 229 -1 b 315 24 307 0 315 7 b 315 1047 321 314 319 794 b 292 1071 315 1064 308 1071 b 94 1071 229 1072 158 1072 b 71 1047 78 1071 71 1064 b 71 24 67 794 65 314 b 94 0 71 7 78 0 z m 103 1139 l 208 1139 b 243 1158 224 1139 235 1144 l 358 1351 b 346 1374 367 1368 364 1374 l 211 1374 b 179 1354 196 1374 186 1368 l 89 1163 b 103 1139 81 1146 85 1139 z "},"Î":{"ha":386,"x_min":0,"x_max":0,"o":"m 94 0 b 292 0 157 -1 229 -1 b 315 24 307 0 315 7 b 315 1047 321 314 319 794 b 292 1071 315 1064 308 1071 b 94 1071 229 1072 158 1072 b 71 1047 78 1071 71 1064 b 71 24 67 794 65 314 b 94 0 71 7 78 0 z m 99 1354 l -24 1160 b -11 1138 -32 1144 -29 1138 l 104 1138 b 139 1157 119 1138 131 1143 l 193 1242 l 246 1157 b 281 1138 254 1143 265 1138 l 394 1138 b 407 1160 413 1138 415 1144 l 289 1353 b 254 1372 281 1367 269 1372 l 133 1372 b 99 1354 118 1372 108 1367 z "},"Ï":{"ha":386,"x_min":0,"x_max":0,"o":"m 94 0 b 292 0 157 -1 229 -1 b 315 24 307 0 315 7 b 315 1047 321 314 319 794 b 292 1071 315 1064 308 1071 b 94 1071 229 1072 158 1072 b 71 1047 78 1071 71 1064 b 71 24 67 794 65 314 b 94 0 71 7 78 0 z m 242 1147 l 376 1147 b 400 1171 393 1147 400 1154 l 400 1308 b 376 1332 400 1325 393 1332 l 242 1332 b 218 1308 225 1332 218 1325 l 218 1171 b 242 1147 218 1154 225 1147 z m 14 1147 l 147 1147 b 171 1171 163 1147 171 1154 l 171 1308 b 147 1332 171 1325 164 1332 l 14 1332 b -10 1308 -1 1332 -10 1325 l -10 1171 b 14 1147 -10 1154 -3 1147 z "},"Ì":{"ha":386,"x_min":0,"x_max":0,"o":"m 94 0 b 292 0 157 -1 229 -1 b 315 24 307 0 315 7 b 315 1047 321 314 319 794 b 292 1071 315 1064 308 1071 b 94 1071 229 1072 158 1072 b 71 1047 78 1071 71 1064 b 71 24 67 794 65 314 b 94 0 71 7 78 0 z m 306 1163 l 219 1354 b 188 1374 214 1368 204 1374 l 50 1374 b 38 1351 32 1374 29 1367 l 149 1158 b 182 1139 156 1144 167 1139 l 290 1139 b 306 1163 308 1139 314 1146 z "},"J":{"ha":826,"x_min":0,"x_max":0,"o":"m 406 -18 b 701 54 571 -18 656 7 b 765 364 750 101 765 165 b 761 1047 767 644 765 869 b 738 1072 761 1063 754 1071 b 531 1071 681 1074 588 1074 b 507 1046 515 1071 507 1063 b 514 374 508 864 514 628 b 492 211 514 247 506 226 b 401 183 475 194 447 183 b 314 208 351 183 329 193 b 279 400 299 224 289 244 b 254 425 279 417 271 425 b 50 425 200 428 101 428 b 26 400 33 425 26 417 b 103 54 35 172 54 104 b 406 -18 151 6 240 -18 z "},"K":{"ha":900,"x_min":0,"x_max":0,"o":"m 97 0 l 303 0 b 326 24 319 0 326 7 b 322 471 326 146 321 319 b 346 492 321 492 333 499 b 597 21 414 364 558 117 b 626 0 601 7 611 0 l 883 0 b 896 22 901 0 906 7 b 586 585 796 199 690 415 b 588 625 578 599 578 611 b 886 1049 679 761 806 928 b 875 1071 897 1064 893 1071 l 626 1071 b 593 1051 611 1071 600 1064 b 356 675 535 946 433 797 b 321 669 346 657 329 658 l 324 1047 b 300 1071 324 1064 317 1071 l 96 1072 b 71 1049 79 1072 72 1065 b 74 24 65 815 68 257 b 97 0 74 7 81 0 z "},"L":{"ha":738,"x_min":0,"x_max":0,"o":"m 96 0 l 693 0 b 717 24 708 0 717 7 l 715 188 b 692 211 715 203 708 211 b 336 207 607 213 442 208 b 318 226 324 207 318 213 b 324 1047 317 439 322 854 b 300 1071 324 1064 317 1071 l 97 1071 b 72 1047 81 1071 72 1064 b 72 24 67 771 65 274 b 96 0 72 7 79 0 z "},"M":{"ha":1176,"x_min":0,"x_max":0,"o":"m 96 0 l 274 0 b 297 24 289 0 297 7 b 296 599 296 172 294 428 b 310 615 294 619 299 625 b 476 22 356 440 419 206 b 506 0 481 7 490 0 l 651 0 b 679 22 667 0 675 7 b 838 610 722 183 792 433 b 854 624 842 631 846 635 b 854 24 856 450 854 197 b 878 0 854 7 861 0 l 1081 0 b 1104 24 1097 0 1104 7 b 1104 1047 1110 271 1110 806 b 1081 1071 1104 1064 1097 1071 l 828 1071 b 799 1049 813 1071 803 1064 b 610 389 744 857 651 563 b 596 375 606 379 604 375 b 585 389 590 375 588 381 b 397 1049 539 571 458 857 b 368 1071 393 1064 383 1071 l 96 1071 b 71 1047 79 1071 72 1064 b 71 24 67 797 67 260 b 96 0 72 7 79 0 z "},"N":{"ha":964,"x_min":0,"x_max":0,"o":"m 92 -1 b 289 -1 151 -4 238 -4 b 313 24 306 0 313 7 b 306 588 313 204 306 438 b 326 606 304 606 315 613 b 629 21 410 446 546 192 b 661 -1 636 6 646 0 b 871 -1 725 -4 814 -4 b 894 24 888 0 894 7 b 896 1047 899 290 899 776 b 872 1072 896 1064 889 1071 b 676 1072 817 1074 731 1074 b 653 1047 660 1071 653 1064 l 654 508 b 635 490 656 490 646 483 b 343 1051 568 622 431 901 b 310 1072 335 1065 325 1071 b 92 1071 251 1074 175 1074 b 68 1047 76 1071 68 1064 b 68 24 64 749 64 303 b 92 -1 68 7 75 0 z "},"Ñ":{"ha":964,"x_min":0,"x_max":0,"o":"m 92 -1 b 289 -1 151 -4 238 -4 b 313 24 306 0 313 7 b 306 588 313 204 306 438 b 326 606 304 606 315 613 b 629 21 410 446 546 192 b 661 -1 636 6 646 0 b 871 -1 725 -4 814 -4 b 894 24 888 0 894 7 b 896 1047 899 290 899 776 b 872 1072 896 1064 889 1071 b 676 1072 817 1074 731 1074 b 653 1047 660 1071 653 1064 l 654 508 b 635 490 656 490 646 483 b 343 1051 568 622 431 901 b 310 1072 335 1065 325 1071 b 92 1071 251 1074 175 1074 b 68 1047 76 1071 68 1064 b 68 24 64 749 64 303 b 92 -1 68 7 75 0 z m 589 1126 b 672 1158 624 1126 651 1138 b 686 1199 682 1171 686 1182 l 686 1289 b 668 1297 686 1307 681 1310 b 593 1271 643 1276 625 1271 b 508 1292 564 1271 539 1281 b 400 1318 478 1304 442 1318 b 315 1286 368 1318 338 1307 b 300 1247 306 1275 300 1263 l 300 1154 b 319 1146 300 1136 307 1133 b 396 1172 347 1168 365 1172 b 482 1151 425 1172 451 1163 b 589 1126 513 1139 549 1126 z "},"O":{"ha":904,"x_min":0,"x_max":0,"o":"m 454 -17 b 775 50 642 -17 729 3 b 861 529 832 110 861 226 b 771 1019 861 836 831 960 b 454 1088 724 1068 640 1088 b 136 1019 265 1088 182 1067 b 43 529 76 957 43 835 b 131 50 43 228 72 111 b 454 -17 178 4 264 -17 z m 453 188 b 339 215 389 188 357 197 b 301 529 314 242 301 315 b 342 857 301 751 314 829 b 453 883 360 876 390 883 b 565 856 517 883 546 875 b 603 529 590 831 603 751 b 565 215 603 315 592 242 b 453 188 547 197 517 188 z "},"Ó":{"ha":904,"x_min":0,"x_max":0,"o":"m 454 -17 b 775 50 642 -17 729 3 b 861 529 832 110 861 226 b 771 1019 861 836 831 960 b 454 1088 724 1068 640 1088 b 136 1019 265 1088 182 1067 b 43 529 76 957 43 835 b 131 50 43 228 72 111 b 454 -17 178 4 264 -17 z m 453 188 b 339 215 389 188 357 197 b 301 529 314 242 301 315 b 342 857 301 751 314 829 b 453 883 360 876 390 883 b 565 856 517 883 546 875 b 603 529 590 831 603 751 b 565 215 603 315 592 242 b 453 188 547 197 517 188 z m 361 1139 l 467 1139 b 501 1158 482 1139 493 1144 l 617 1351 b 604 1374 625 1368 622 1374 l 469 1374 b 438 1354 454 1374 444 1368 l 347 1163 b 361 1139 339 1146 343 1139 z "},"Ô":{"ha":904,"x_min":0,"x_max":0,"o":"m 454 -17 b 775 50 642 -17 729 3 b 861 529 832 110 861 226 b 771 1019 861 836 831 960 b 454 1088 724 1068 640 1088 b 136 1019 265 1088 182 1067 b 43 529 76 957 43 835 b 131 50 43 228 72 111 b 454 -17 178 4 264 -17 z m 453 188 b 339 215 389 188 357 197 b 301 529 314 242 301 315 b 342 857 301 751 314 829 b 453 883 360 876 390 883 b 565 856 517 883 546 875 b 603 529 590 831 603 751 b 565 215 603 315 592 242 b 453 188 547 197 517 188 z m 357 1354 l 235 1160 b 247 1138 226 1144 229 1138 l 363 1138 b 397 1157 378 1138 389 1143 l 451 1242 l 504 1157 b 539 1138 513 1143 524 1138 l 653 1138 b 665 1160 671 1138 674 1144 l 547 1353 b 513 1372 539 1367 528 1372 l 392 1372 b 357 1354 376 1372 367 1367 z "},"Ö":{"ha":904,"x_min":0,"x_max":0,"o":"m 454 -17 b 775 50 642 -17 729 3 b 861 529 832 110 861 226 b 771 1019 861 836 831 960 b 454 1088 724 1068 640 1088 b 136 1019 265 1088 182 1067 b 43 529 76 957 43 835 b 131 50 43 228 72 111 b 454 -17 178 4 264 -17 z m 453 188 b 339 215 389 188 357 197 b 301 529 314 242 301 315 b 342 857 301 751 314 829 b 453 883 360 876 390 883 b 565 856 517 883 546 875 b 603 529 590 831 603 751 b 565 215 603 315 592 242 b 453 188 547 197 517 188 z m 501 1147 l 636 1147 b 660 1171 653 1147 660 1154 l 660 1308 b 636 1332 660 1325 653 1332 l 501 1332 b 478 1308 485 1332 478 1325 l 478 1171 b 501 1147 478 1154 485 1147 z m 274 1147 l 407 1147 b 431 1171 422 1147 431 1154 l 431 1308 b 407 1332 431 1325 424 1332 l 274 1332 b 250 1308 258 1332 250 1325 l 250 1171 b 274 1147 250 1154 257 1147 z "},"Ò":{"ha":904,"x_min":0,"x_max":0,"o":"m 454 -17 b 775 50 642 -17 729 3 b 861 529 832 110 861 226 b 771 1019 861 836 831 960 b 454 1088 724 1068 640 1088 b 136 1019 265 1088 182 1067 b 43 529 76 957 43 835 b 131 50 43 228 72 111 b 454 -17 178 4 264 -17 z m 453 188 b 339 215 389 188 357 197 b 301 529 314 242 301 315 b 342 857 301 751 314 829 b 453 883 360 876 390 883 b 565 856 517 883 546 875 b 603 529 590 831 603 751 b 565 215 603 315 592 242 b 453 188 547 197 517 188 z m 564 1163 l 478 1354 b 446 1374 472 1368 463 1374 l 308 1374 b 296 1351 290 1374 288 1367 l 407 1158 b 440 1139 414 1144 425 1139 l 549 1139 b 564 1163 567 1139 572 1146 z "},"Ø":{"ha":904,"x_min":0,"x_max":0,"o":"m 454 -17 b 775 50 642 -17 729 3 b 861 529 832 110 861 226 b 771 1019 861 836 831 960 b 676 1069 749 1042 719 1058 l 700 1144 b 682 1169 706 1161 700 1169 l 606 1169 b 576 1147 590 1169 581 1163 l 557 1085 l 454 1088 b 136 1019 265 1088 182 1067 b 43 529 76 957 43 835 b 131 50 43 228 72 111 b 226 3 153 29 182 13 l 200 -86 b 218 -111 194 -104 200 -111 l 296 -111 b 325 -90 311 -111 319 -104 l 349 -14 z m 453 188 l 410 189 l 590 785 b 603 529 599 735 603 654 b 565 215 603 315 592 242 b 453 188 547 197 517 188 z m 301 529 b 342 857 301 751 314 829 b 453 883 360 876 390 883 l 496 882 l 314 285 b 301 529 306 333 301 408 z "},"Õ":{"ha":904,"x_min":0,"x_max":0,"o":"m 454 -17 b 775 50 642 -17 729 3 b 861 529 832 110 861 226 b 771 1019 861 836 831 960 b 454 1088 724 1068 640 1088 b 136 1019 265 1088 182 1067 b 43 529 76 957 43 835 b 131 50 43 228 72 111 b 454 -17 178 4 264 -17 z m 453 188 b 339 215 389 188 357 197 b 301 529 314 242 301 315 b 342 857 301 751 314 829 b 453 883 360 876 390 883 b 565 856 517 883 546 875 b 603 529 590 831 603 751 b 565 215 603 315 592 242 b 453 188 547 197 517 188 z m 563 1125 b 646 1157 597 1125 625 1136 b 660 1197 656 1169 660 1181 l 660 1288 b 642 1296 660 1306 654 1308 b 567 1269 617 1275 599 1269 b 482 1290 538 1269 513 1279 b 374 1317 451 1303 415 1317 b 289 1285 342 1317 311 1306 b 274 1246 279 1274 274 1261 l 274 1153 b 293 1144 274 1135 281 1132 b 369 1171 321 1167 339 1171 b 456 1150 399 1171 425 1161 b 563 1125 486 1138 522 1125 z "},"Œ":{"ha":1303,"x_min":0,"x_max":0,"o":"m 454 -17 b 672 0 551 -17 621 -11 l 1231 0 b 1254 24 1247 0 1254 7 l 1254 179 b 1231 203 1254 196 1247 203 l 874 200 b 854 218 861 200 856 206 l 854 314 b 860 446 857 353 860 396 b 874 450 864 449 868 450 l 1213 450 b 1236 474 1229 450 1236 457 l 1236 617 b 1213 640 1236 633 1229 640 l 874 640 b 860 644 867 640 863 642 l 854 744 l 854 851 b 874 871 856 864 861 871 b 1229 867 974 869 1126 867 b 1253 890 1244 867 1253 872 l 1253 1047 b 1229 1071 1253 1063 1246 1071 l 668 1071 b 454 1088 618 1082 550 1088 b 136 1019 265 1088 182 1067 b 43 529 76 957 43 835 b 131 50 43 228 72 111 b 454 -17 178 4 264 -17 z m 453 188 b 339 215 389 188 357 197 b 301 529 314 242 301 315 b 342 857 301 751 314 829 b 453 883 360 876 390 883 b 565 856 517 883 546 875 b 603 529 590 831 603 751 b 565 215 603 315 592 242 b 453 188 547 197 517 188 z "},"P":{"ha":853,"x_min":0,"x_max":0,"o":"m 93 0 l 301 0 b 325 24 318 0 325 7 b 322 311 322 115 322 231 b 340 329 322 324 328 329 l 506 329 b 761 403 644 329 710 351 b 831 707 806 446 831 525 b 763 1014 831 889 806 969 b 499 1076 714 1061 650 1076 l 94 1076 b 69 1053 78 1076 71 1069 b 69 24 67 844 67 240 b 93 0 69 7 76 0 z m 318 547 b 319 860 317 624 318 764 b 338 878 319 871 325 878 l 481 878 b 553 857 519 878 538 872 b 578 696 569 842 578 810 b 554 549 578 585 569 564 b 483 528 542 536 521 528 l 336 528 b 318 547 324 528 318 533 z "},"Q":{"ha":890,"x_min":0,"x_max":0,"o":"m 599 -282 b 764 -278 668 -282 724 -279 b 788 -253 781 -276 788 -269 l 788 -121 b 764 -99 788 -106 781 -97 l 624 -100 b 579 -67 588 -100 579 -90 l 579 -4 b 775 57 683 3 740 22 b 861 531 832 117 861 232 b 771 1015 861 835 831 956 b 454 1082 724 1064 640 1082 b 136 1015 265 1082 182 1063 b 43 531 76 953 43 833 b 131 57 43 233 72 118 b 325 -4 165 24 221 4 l 325 -58 b 599 -282 325 -232 381 -282 z m 453 193 b 339 221 389 193 357 203 b 301 531 314 247 301 319 b 342 854 301 750 314 828 b 453 881 360 874 390 881 b 565 853 517 881 546 872 b 603 531 590 829 603 750 b 565 221 603 319 592 247 b 453 193 547 203 517 193 z "},"R":{"ha":886,"x_min":0,"x_max":0,"o":"m 93 0 l 296 0 b 319 24 313 0 319 7 l 319 304 b 339 322 319 317 325 322 l 488 322 b 554 303 522 322 540 317 b 575 218 571 286 575 257 l 575 24 b 599 0 575 7 582 0 l 801 0 b 825 24 818 0 825 7 l 826 215 b 775 397 826 315 814 361 b 749 433 758 411 749 421 b 772 474 749 449 761 461 b 844 721 815 522 844 569 b 781 1015 843 907 821 974 b 546 1076 736 1060 689 1076 l 93 1076 b 69 1053 76 1076 69 1069 b 69 24 67 824 67 253 b 93 0 69 7 76 0 z m 318 544 b 319 857 317 625 318 775 b 339 875 321 869 326 875 l 486 875 b 561 853 524 875 547 868 b 585 704 579 833 585 800 b 557 549 585 601 576 568 b 490 526 542 533 521 526 l 336 526 b 318 544 324 526 318 532 z "},"S":{"ha":838,"x_min":0,"x_max":0,"o":"m 435 -18 b 738 49 611 -17 693 4 b 806 296 782 94 806 175 b 740 564 806 439 788 513 b 476 654 700 607 640 624 b 311 706 351 678 326 689 b 290 792 296 724 290 751 b 311 879 290 835 297 864 b 419 901 326 893 354 900 b 525 878 483 903 510 893 b 554 772 538 865 546 838 b 581 749 557 757 564 749 l 781 751 b 803 775 796 751 804 758 b 732 1024 793 904 771 981 b 418 1088 688 1069 603 1088 b 113 1018 244 1088 158 1064 b 40 778 67 971 40 889 b 103 535 40 660 61 578 b 350 443 144 489 222 467 b 529 393 472 422 510 413 b 556 286 547 372 554 340 b 533 192 556 238 550 208 b 425 169 519 176 490 169 b 319 194 361 169 336 179 b 286 322 304 210 297 243 b 260 346 285 339 276 346 l 58 346 b 36 324 43 346 35 340 b 108 51 44 176 68 93 b 435 -18 156 3 250 -19 z "},"ẞ":{"ha":1685,"x_min":0,"x_max":0,"o":"m 435 -18 b 738 49 611 -17 693 4 b 806 296 782 94 806 175 b 740 564 806 439 788 513 b 476 654 700 607 640 624 b 311 706 351 678 326 689 b 290 792 296 724 290 751 b 311 879 290 835 297 864 b 419 901 326 893 354 900 b 525 878 483 903 510 893 b 554 772 538 865 546 838 b 581 749 557 757 564 749 l 781 751 b 803 775 796 751 804 758 b 732 1024 793 904 771 981 b 418 1088 688 1069 603 1088 b 113 1018 244 1088 158 1064 b 40 778 67 971 40 889 b 103 535 40 660 61 578 b 350 443 144 489 222 467 b 529 393 472 422 510 413 b 556 286 547 372 554 340 b 533 192 556 238 550 208 b 425 169 519 176 490 169 b 319 194 361 169 336 179 b 286 322 304 210 297 243 b 260 346 285 339 276 346 l 58 346 b 36 324 43 346 35 340 b 108 51 44 176 68 93 b 435 -18 156 3 250 -19 z m 1282 -18 b 1585 49 1458 -17 1540 4 b 1653 296 1629 94 1653 175 b 1588 564 1653 439 1635 513 b 1324 654 1547 607 1488 624 b 1158 706 1199 678 1174 689 b 1138 792 1143 724 1138 751 b 1158 879 1138 835 1144 864 b 1267 901 1174 893 1201 900 b 1372 878 1331 903 1357 893 b 1401 772 1385 865 1393 838 b 1428 749 1404 757 1411 749 l 1628 751 b 1650 775 1643 751 1651 758 b 1579 1024 1640 904 1618 981 b 1265 1088 1535 1069 1450 1088 b 960 1018 1092 1088 1006 1064 b 888 778 914 971 888 889 b 950 535 888 660 908 578 b 1197 443 992 489 1069 467 b 1376 393 1319 422 1357 413 b 1403 286 1394 372 1401 340 b 1381 192 1403 238 1397 208 b 1272 169 1367 176 1338 169 b 1167 194 1208 169 1183 179 b 1133 322 1151 210 1144 243 b 1107 346 1132 339 1124 346 l 906 346 b 883 324 890 346 882 340 b 956 51 892 176 915 93 b 1282 -18 1003 3 1097 -19 z "},"T":{"ha":838,"x_min":0,"x_max":0,"o":"m 322 0 b 528 0 393 -1 454 -1 b 551 24 544 0 551 7 l 549 857 b 567 874 549 868 554 875 l 800 868 b 824 892 817 868 824 875 l 824 1053 b 800 1076 824 1069 817 1076 b 38 1076 596 1079 279 1078 b 14 1053 21 1076 14 1069 l 14 893 b 38 869 14 876 21 869 l 283 875 b 301 857 296 875 301 869 b 297 24 300 622 297 235 b 322 0 299 7 306 0 z "},"U":{"ha":888,"x_min":0,"x_max":0,"o":"m 449 -19 b 769 57 638 -19 718 4 b 828 358 817 104 828 150 b 822 1053 828 654 824 901 b 799 1078 822 1069 815 1076 b 594 1078 736 1079 654 1079 b 571 1053 579 1076 571 1069 l 572 367 b 554 217 572 250 568 231 b 449 189 538 200 510 189 b 338 215 376 189 353 199 b 319 364 324 229 319 249 b 322 1053 319 639 322 890 b 299 1078 322 1069 315 1076 b 92 1078 238 1079 156 1079 b 67 1053 75 1076 68 1069 b 60 361 64 885 60 651 b 122 57 60 158 72 107 b 449 -19 175 6 257 -19 z "},"Ú":{"ha":888,"x_min":0,"x_max":0,"o":"m 449 -19 b 769 57 638 -19 718 4 b 828 358 817 104 828 150 b 822 1053 828 654 824 901 b 799 1078 822 1069 815 1076 b 594 1078 736 1079 654 1079 b 571 1053 579 1076 571 1069 l 572 367 b 554 217 572 250 568 231 b 449 189 538 200 510 189 b 338 215 376 189 353 199 b 319 364 324 229 319 249 b 322 1053 319 639 322 890 b 299 1078 322 1069 315 1076 b 92 1078 238 1079 156 1079 b 67 1053 75 1076 68 1069 b 60 361 64 885 60 651 b 122 57 60 158 72 107 b 449 -19 175 6 257 -19 z m 353 1146 l 458 1146 b 493 1165 474 1146 485 1151 l 608 1358 b 596 1381 617 1375 614 1381 l 461 1381 b 429 1361 446 1381 436 1375 l 339 1169 b 353 1146 331 1153 335 1146 z "},"Û":{"ha":888,"x_min":0,"x_max":0,"o":"m 449 -19 b 769 57 638 -19 718 4 b 828 358 817 104 828 150 b 822 1053 828 654 824 901 b 799 1078 822 1069 815 1076 b 594 1078 736 1079 654 1079 b 571 1053 579 1076 571 1069 l 572 367 b 554 217 572 250 568 231 b 449 189 538 200 510 189 b 338 215 376 189 353 199 b 319 364 324 229 319 249 b 322 1053 319 639 322 890 b 299 1078 322 1069 315 1076 b 92 1078 238 1079 156 1079 b 67 1053 75 1076 68 1069 b 60 361 64 885 60 651 b 122 57 60 158 72 107 b 449 -19 175 6 257 -19 z m 349 1361 l 226 1167 b 239 1144 218 1151 221 1144 l 354 1144 b 389 1164 369 1144 381 1150 l 443 1249 l 496 1164 b 531 1144 504 1150 515 1144 l 644 1144 b 657 1167 663 1144 665 1151 l 539 1360 b 504 1379 531 1374 519 1379 l 383 1379 b 349 1361 368 1379 358 1374 z "},"Ü":{"ha":888,"x_min":0,"x_max":0,"o":"m 449 -19 b 769 57 638 -19 718 4 b 828 358 817 104 828 150 b 822 1053 828 654 824 901 b 799 1078 822 1069 815 1076 b 594 1078 736 1079 654 1079 b 571 1053 579 1076 571 1069 l 572 367 b 554 217 572 250 568 231 b 449 189 538 200 510 189 b 338 215 376 189 353 199 b 319 364 324 229 319 249 b 322 1053 319 639 322 890 b 299 1078 322 1069 315 1076 b 92 1078 238 1079 156 1079 b 67 1053 75 1076 68 1069 b 60 361 64 885 60 651 b 122 57 60 158 72 107 b 449 -19 175 6 257 -19 z m 492 1154 l 626 1154 b 650 1178 643 1154 650 1161 l 650 1315 b 626 1339 650 1332 643 1339 l 492 1339 b 468 1315 475 1339 468 1332 l 468 1178 b 492 1154 468 1161 475 1154 z m 264 1154 l 397 1154 b 421 1178 413 1154 421 1161 l 421 1315 b 397 1339 421 1332 414 1339 l 264 1339 b 240 1315 249 1339 240 1332 l 240 1178 b 264 1154 240 1161 247 1154 z "},"Ù":{"ha":888,"x_min":0,"x_max":0,"o":"m 449 -19 b 769 57 638 -19 718 4 b 828 358 817 104 828 150 b 822 1053 828 654 824 901 b 799 1078 822 1069 815 1076 b 594 1078 736 1079 654 1079 b 571 1053 579 1076 571 1069 l 572 367 b 554 217 572 250 568 231 b 449 189 538 200 510 189 b 338 215 376 189 353 199 b 319 364 324 229 319 249 b 322 1053 319 639 322 890 b 299 1078 322 1069 315 1076 b 92 1078 238 1079 156 1079 b 67 1053 75 1076 68 1069 b 60 361 64 885 60 651 b 122 57 60 158 72 107 b 449 -19 175 6 257 -19 z m 556 1169 l 469 1361 b 438 1381 464 1375 454 1381 l 300 1381 b 288 1358 282 1381 279 1374 l 399 1165 b 432 1146 406 1151 417 1146 l 540 1146 b 556 1169 558 1146 564 1153 z "},"V":{"ha":871,"x_min":0,"x_max":0,"o":"m 313 -1 b 578 -1 401 -4 488 -4 b 606 21 593 -1 601 6 b 856 1046 694 318 778 731 b 836 1071 860 1063 854 1071 b 633 1071 772 1072 686 1072 b 606 1049 617 1071 608 1064 l 461 363 b 446 338 457 342 454 338 b 429 361 438 338 433 343 b 283 1049 394 536 329 844 b 256 1071 279 1064 271 1071 b 40 1072 188 1072 100 1074 b 19 1046 22 1071 15 1063 b 282 21 90 749 183 311 b 313 -1 288 7 296 0 z "},"W":{"ha":1343,"x_min":0,"x_max":0,"o":"m 264 -1 b 482 -1 321 -3 425 -3 b 510 22 499 0 507 7 b 649 669 551 210 611 485 b 671 683 651 689 661 694 b 842 22 710 503 794 194 b 869 -1 846 7 854 0 b 1089 -1 926 -3 1026 -4 b 1115 22 1104 0 1113 7 b 1318 1046 1160 264 1278 775 b 1296 1072 1321 1064 1314 1071 b 1118 1072 1244 1074 1167 1074 b 1093 1049 1103 1071 1094 1064 b 982 397 1064 858 1011 578 b 963 382 981 376 972 371 b 807 1049 926 569 843 889 b 779 1072 803 1064 794 1071 b 596 1072 732 1074 649 1074 b 569 1049 581 1071 572 1064 b 426 396 543 900 468 594 b 407 381 424 375 415 371 b 283 1049 376 572 308 889 b 257 1071 281 1064 274 1071 b 50 1072 200 1074 108 1074 b 28 1044 32 1071 25 1063 b 238 22 67 792 179 321 b 264 -1 240 7 249 0 z "},"Ẃ":{"ha":1343,"x_min":0,"x_max":0,"o":"m 264 -1 b 482 -1 321 -3 425 -3 b 510 22 499 0 507 7 b 649 669 551 210 611 485 b 671 683 651 689 661 694 b 842 22 710 503 794 194 b 869 -1 846 7 854 0 b 1089 -1 926 -3 1026 -4 b 1115 22 1104 0 1113 7 b 1318 1046 1160 264 1278 775 b 1296 1072 1321 1064 1314 1071 b 1118 1072 1244 1074 1167 1074 b 1093 1049 1103 1071 1094 1064 b 982 397 1064 858 1011 578 b 963 382 981 376 972 371 b 807 1049 926 569 843 889 b 779 1072 803 1064 794 1071 b 596 1072 732 1074 649 1074 b 569 1049 581 1071 572 1064 b 426 396 543 900 468 594 b 407 381 424 375 415 371 b 283 1049 376 572 308 889 b 257 1071 281 1064 274 1071 b 50 1072 200 1074 108 1074 b 28 1044 32 1071 25 1063 b 238 22 67 792 179 321 b 264 -1 240 7 249 0 z m 563 1139 l 668 1139 b 703 1158 683 1139 694 1144 l 818 1351 b 806 1374 826 1368 824 1374 l 671 1374 b 639 1354 656 1374 646 1368 l 549 1163 b 563 1139 540 1146 544 1139 z "},"Ŵ":{"ha":1343,"x_min":0,"x_max":0,"o":"m 264 -1 b 482 -1 321 -3 425 -3 b 510 22 499 0 507 7 b 649 669 551 210 611 485 b 671 683 651 689 661 694 b 842 22 710 503 794 194 b 869 -1 846 7 854 0 b 1089 -1 926 -3 1026 -4 b 1115 22 1104 0 1113 7 b 1318 1046 1160 264 1278 775 b 1296 1072 1321 1064 1314 1071 b 1118 1072 1244 1074 1167 1074 b 1093 1049 1103 1071 1094 1064 b 982 397 1064 858 1011 578 b 963 382 981 376 972 371 b 807 1049 926 569 843 889 b 779 1072 803 1064 794 1071 b 596 1072 732 1074 649 1074 b 569 1049 581 1071 572 1064 b 426 396 543 900 468 594 b 407 381 424 375 415 371 b 283 1049 376 572 308 889 b 257 1071 281 1064 274 1071 b 50 1072 200 1074 108 1074 b 28 1044 32 1071 25 1063 b 238 22 67 792 179 321 b 264 -1 240 7 249 0 z m 560 1354 l 438 1160 b 450 1138 429 1144 432 1138 l 565 1138 b 600 1157 581 1138 592 1143 l 654 1242 l 707 1157 b 742 1138 715 1143 726 1138 l 856 1138 b 868 1160 874 1138 876 1144 l 750 1353 b 715 1372 742 1367 731 1372 l 594 1372 b 560 1354 579 1372 569 1367 z "},"Ẅ":{"ha":1343,"x_min":0,"x_max":0,"o":"m 264 -1 b 482 -1 321 -3 425 -3 b 510 22 499 0 507 7 b 649 669 551 210 611 485 b 671 683 651 689 661 694 b 842 22 710 503 794 194 b 869 -1 846 7 854 0 b 1089 -1 926 -3 1026 -4 b 1115 22 1104 0 1113 7 b 1318 1046 1160 264 1278 775 b 1296 1072 1321 1064 1314 1071 b 1118 1072 1244 1074 1167 1074 b 1093 1049 1103 1071 1094 1064 b 982 397 1064 858 1011 578 b 963 382 981 376 972 371 b 807 1049 926 569 843 889 b 779 1072 803 1064 794 1071 b 596 1072 732 1074 649 1074 b 569 1049 581 1071 572 1064 b 426 396 543 900 468 594 b 407 381 424 375 415 371 b 283 1049 376 572 308 889 b 257 1071 281 1064 274 1071 b 50 1072 200 1074 108 1074 b 28 1044 32 1071 25 1063 b 238 22 67 792 179 321 b 264 -1 240 7 249 0 z m 703 1147 l 838 1147 b 861 1171 854 1147 861 1154 l 861 1308 b 838 1332 861 1325 854 1332 l 703 1332 b 679 1308 686 1332 679 1325 l 679 1171 b 703 1147 679 1154 686 1147 z m 475 1147 l 608 1147 b 632 1171 624 1147 632 1154 l 632 1308 b 608 1332 632 1325 625 1332 l 475 1332 b 451 1308 460 1332 451 1325 l 451 1171 b 475 1147 451 1154 458 1147 z "},"Ẁ":{"ha":1343,"x_min":0,"x_max":0,"o":"m 264 -1 b 482 -1 321 -3 425 -3 b 510 22 499 0 507 7 b 649 669 551 210 611 485 b 671 683 651 689 661 694 b 842 22 710 503 794 194 b 869 -1 846 7 854 0 b 1089 -1 926 -3 1026 -4 b 1115 22 1104 0 1113 7 b 1318 1046 1160 264 1278 775 b 1296 1072 1321 1064 1314 1071 b 1118 1072 1244 1074 1167 1074 b 1093 1049 1103 1071 1094 1064 b 982 397 1064 858 1011 578 b 963 382 981 376 972 371 b 807 1049 926 569 843 889 b 779 1072 803 1064 794 1071 b 596 1072 732 1074 649 1074 b 569 1049 581 1071 572 1064 b 426 396 543 900 468 594 b 407 381 424 375 415 371 b 283 1049 376 572 308 889 b 257 1071 281 1064 274 1071 b 50 1072 200 1074 108 1074 b 28 1044 32 1071 25 1063 b 238 22 67 792 179 321 b 264 -1 240 7 249 0 z m 767 1163 l 681 1354 b 649 1374 675 1368 665 1374 l 511 1374 b 499 1351 493 1374 490 1367 l 610 1158 b 643 1139 617 1144 628 1139 l 751 1139 b 767 1163 769 1139 775 1146 z "},"X":{"ha":844,"x_min":0,"x_max":0,"o":"m 35 0 l 247 0 b 276 22 263 0 272 7 b 389 367 303 114 353 258 b 419 378 393 382 411 385 b 549 22 463 267 521 118 b 578 -1 553 7 563 0 b 806 -1 646 -3 739 -3 b 824 25 824 0 829 7 b 618 538 774 175 675 399 b 619 581 611 553 611 567 b 828 1046 675 697 776 904 b 811 1071 835 1063 829 1071 l 606 1071 b 576 1049 590 1071 582 1064 b 472 778 556 988 511 865 b 433 768 467 763 443 761 b 322 1050 397 850 351 969 b 293 1071 318 1064 308 1071 b 50 1071 225 1074 111 1074 b 33 1046 32 1071 26 1063 b 222 615 75 939 168 735 b 222 572 228 600 229 588 b 18 25 160 417 69 181 b 35 0 13 7 18 0 z "},"Y":{"ha":847,"x_min":0,"x_max":0,"o":"m 326 0 b 538 0 385 -1 481 -1 b 560 24 553 0 560 7 b 556 363 560 103 560 246 b 564 397 556 375 557 386 b 847 1046 688 622 793 871 b 828 1071 851 1063 846 1071 b 631 1072 765 1074 683 1074 b 601 1049 614 1071 606 1064 b 464 706 569 953 513 807 b 424 696 457 692 432 690 b 278 1050 372 799 318 935 b 247 1071 272 1064 263 1071 b 22 1071 179 1072 106 1072 b 3 1046 4 1071 -1 1063 b 294 401 56 878 193 607 b 301 367 299 390 301 379 l 303 24 b 326 0 303 8 310 0 z "},"Ý":{"ha":847,"x_min":0,"x_max":0,"o":"m 326 0 b 538 0 385 -1 481 -1 b 560 24 553 0 560 7 b 556 363 560 103 560 246 b 564 397 556 375 557 386 b 847 1046 688 622 793 871 b 828 1071 851 1063 846 1071 b 631 1072 765 1074 683 1074 b 601 1049 614 1071 606 1064 b 464 706 569 953 513 807 b 424 696 457 692 432 690 b 278 1050 372 799 318 935 b 247 1071 272 1064 263 1071 b 22 1071 179 1072 106 1072 b 3 1046 4 1071 -1 1063 b 294 401 56 878 193 607 b 301 367 299 390 301 379 l 303 24 b 326 0 303 8 310 0 z m 326 1139 l 432 1139 b 467 1158 447 1139 458 1144 l 582 1351 b 569 1374 590 1368 588 1374 l 435 1374 b 403 1354 419 1374 410 1368 l 313 1163 b 326 1139 304 1146 308 1139 z "},"Ŷ":{"ha":847,"x_min":0,"x_max":0,"o":"m 326 0 b 538 0 385 -1 481 -1 b 560 24 553 0 560 7 b 556 363 560 103 560 246 b 564 397 556 375 557 386 b 847 1046 688 622 793 871 b 828 1071 851 1063 846 1071 b 631 1072 765 1074 683 1074 b 601 1049 614 1071 606 1064 b 464 706 569 953 513 807 b 424 696 457 692 432 690 b 278 1050 372 799 318 935 b 247 1071 272 1064 263 1071 b 22 1071 179 1072 106 1072 b 3 1046 4 1071 -1 1063 b 294 401 56 878 193 607 b 301 367 299 390 301 379 l 303 24 b 326 0 303 8 310 0 z m 324 1354 l 201 1160 b 214 1138 193 1144 196 1138 l 329 1138 b 364 1157 344 1138 356 1143 l 418 1242 l 471 1157 b 506 1138 479 1143 490 1138 l 619 1138 b 632 1160 638 1138 640 1144 l 514 1353 b 479 1372 506 1367 494 1372 l 358 1372 b 324 1354 343 1372 333 1367 z "},"Ÿ":{"ha":847,"x_min":0,"x_max":0,"o":"m 326 0 b 538 0 385 -1 481 -1 b 560 24 553 0 560 7 b 556 363 560 103 560 246 b 564 397 556 375 557 386 b 847 1046 688 622 793 871 b 828 1071 851 1063 846 1071 b 631 1072 765 1074 683 1074 b 601 1049 614 1071 606 1064 b 464 706 569 953 513 807 b 424 696 457 692 432 690 b 278 1050 372 799 318 935 b 247 1071 272 1064 263 1071 b 22 1071 179 1072 106 1072 b 3 1046 4 1071 -1 1063 b 294 401 56 878 193 607 b 301 367 299 390 301 379 l 303 24 b 326 0 303 8 310 0 z m 467 1147 l 601 1147 b 625 1171 618 1147 625 1154 l 625 1308 b 601 1332 625 1325 618 1332 l 467 1332 b 443 1308 450 1332 443 1325 l 443 1171 b 467 1147 443 1154 450 1147 z m 239 1147 l 372 1147 b 396 1171 388 1147 396 1154 l 396 1308 b 372 1332 396 1325 389 1332 l 239 1332 b 215 1308 224 1332 215 1325 l 215 1171 b 239 1147 215 1154 222 1147 z "},"Ỳ":{"ha":847,"x_min":0,"x_max":0,"o":"m 326 0 b 538 0 385 -1 481 -1 b 560 24 553 0 560 7 b 556 363 560 103 560 246 b 564 397 556 375 557 386 b 847 1046 688 622 793 871 b 828 1071 851 1063 846 1071 b 631 1072 765 1074 683 1074 b 601 1049 614 1071 606 1064 b 464 706 569 953 513 807 b 424 696 457 692 432 690 b 278 1050 372 799 318 935 b 247 1071 272 1064 263 1071 b 22 1071 179 1072 106 1072 b 3 1046 4 1071 -1 1063 b 294 401 56 878 193 607 b 301 367 299 390 301 379 l 303 24 b 326 0 303 8 310 0 z m 529 1163 l 443 1354 b 411 1374 438 1368 428 1374 l 274 1374 b 261 1351 256 1374 253 1367 l 372 1158 b 406 1139 379 1144 390 1139 l 514 1139 b 529 1163 532 1139 538 1146 z "},"Z":{"ha":739,"x_min":0,"x_max":0,"o":"m 64 0 b 676 0 147 -1 394 0 b 700 24 692 0 700 7 l 701 188 b 678 211 701 204 694 211 l 364 208 b 351 229 347 208 343 214 b 676 833 454 421 569 639 b 688 875 683 847 688 860 l 688 1047 b 664 1071 688 1064 681 1071 b 61 1071 488 1071 242 1072 b 38 1047 46 1071 38 1064 l 38 886 b 61 863 38 869 44 863 l 361 864 b 372 843 378 864 381 858 b 51 244 275 685 150 422 b 40 203 43 231 40 218 l 40 24 b 64 0 40 7 47 0 z "},"a":{"ha":760,"x_min":0,"x_max":0,"o":"m 263 -12 b 460 54 356 -12 392 3 b 490 43 475 65 486 61 l 493 24 b 519 0 494 7 503 0 l 682 0 b 706 24 699 0 706 7 l 706 592 b 650 838 706 726 689 799 b 389 900 607 879 538 900 b 104 833 219 899 149 878 b 42 639 72 801 53 739 b 64 615 40 624 47 615 b 254 617 118 614 203 614 b 281 640 269 618 278 625 b 303 710 286 681 292 700 b 379 729 314 722 333 729 b 453 711 424 729 442 722 b 471 626 465 700 471 675 l 471 590 b 453 569 471 578 465 571 l 315 546 b 94 474 169 526 125 506 b 36 264 53 432 36 379 b 86 32 36 129 50 68 b 263 -12 117 1 167 -12 z m 338 167 b 285 182 308 167 294 171 b 269 269 274 192 269 208 b 289 363 269 322 274 347 b 372 390 300 375 319 383 l 453 404 b 471 389 465 407 471 403 b 432 203 474 246 465 233 b 338 167 401 178 374 167 z "},"á":{"ha":760,"x_min":0,"x_max":0,"o":"m 263 -12 b 460 54 356 -12 392 3 b 490 43 475 65 486 61 l 493 24 b 519 0 494 7 503 0 l 682 0 b 706 24 699 0 706 7 l 706 592 b 650 838 706 726 689 799 b 389 900 607 879 538 900 b 104 833 219 899 149 878 b 42 639 72 801 53 739 b 64 615 40 624 47 615 b 254 617 118 614 203 614 b 281 640 269 618 278 625 b 303 710 286 681 292 700 b 379 729 314 722 333 729 b 453 711 424 729 442 722 b 471 626 465 700 471 675 l 471 590 b 453 569 471 578 465 571 l 315 546 b 94 474 169 526 125 506 b 36 264 53 432 36 379 b 86 32 36 129 50 68 b 263 -12 117 1 167 -12 z m 338 167 b 285 182 308 167 294 171 b 269 269 274 192 269 208 b 289 363 269 322 274 347 b 372 390 300 375 319 383 l 453 404 b 471 389 465 407 471 403 b 432 203 474 246 465 233 b 338 167 401 178 374 167 z m 288 947 l 392 947 b 425 967 407 947 417 953 l 539 1156 b 526 1178 547 1172 544 1178 l 394 1178 b 363 1158 379 1178 369 1172 l 274 971 b 288 947 265 954 269 947 z "},"â":{"ha":760,"x_min":0,"x_max":0,"o":"m 263 -12 b 460 54 356 -12 392 3 b 490 43 475 65 486 61 l 493 24 b 519 0 494 7 503 0 l 682 0 b 706 24 699 0 706 7 l 706 592 b 650 838 706 726 689 799 b 389 900 607 879 538 900 b 104 833 219 899 149 878 b 42 639 72 801 53 739 b 64 615 40 624 47 615 b 254 617 118 614 203 614 b 281 640 269 618 278 625 b 303 710 286 681 292 700 b 379 729 314 722 333 729 b 453 711 424 729 442 722 b 471 626 465 700 471 675 l 471 590 b 453 569 471 578 465 571 l 315 546 b 94 474 169 526 125 506 b 36 264 53 432 36 379 b 86 32 36 129 50 68 b 263 -12 117 1 167 -12 z m 338 167 b 285 182 308 167 294 171 b 269 269 274 192 269 208 b 289 363 269 322 274 347 b 372 390 300 375 319 383 l 453 404 b 471 389 465 407 471 403 b 432 203 474 246 465 233 b 338 167 401 178 374 167 z m 283 1158 l 164 968 b 176 946 156 953 158 946 l 289 946 b 324 965 304 946 315 951 l 378 1049 l 429 965 b 463 946 438 951 449 946 l 575 946 b 588 968 593 946 596 953 l 471 1157 b 438 1176 463 1171 451 1176 l 318 1176 b 283 1158 303 1176 293 1171 z "},"ä":{"ha":760,"x_min":0,"x_max":0,"o":"m 263 -12 b 460 54 356 -12 392 3 b 490 43 475 65 486 61 l 493 24 b 519 0 494 7 503 0 l 682 0 b 706 24 699 0 706 7 l 706 592 b 650 838 706 726 689 799 b 389 900 607 879 538 900 b 104 833 219 899 149 878 b 42 639 72 801 53 739 b 64 615 40 624 47 615 b 254 617 118 614 203 614 b 281 640 269 618 278 625 b 303 710 286 681 292 700 b 379 729 314 722 333 729 b 453 711 424 729 442 722 b 471 626 465 700 471 675 l 471 590 b 453 569 471 578 465 571 l 315 546 b 94 474 169 526 125 506 b 36 264 53 432 36 379 b 86 32 36 129 50 68 b 263 -12 117 1 167 -12 z m 338 167 b 285 182 308 167 294 171 b 269 269 274 192 269 208 b 289 363 269 322 274 347 b 372 390 300 375 319 383 l 453 404 b 471 389 465 407 471 403 b 432 203 474 246 465 233 b 338 167 401 178 374 167 z m 425 956 l 557 956 b 581 979 574 956 581 963 l 581 1114 b 557 1136 581 1131 574 1136 l 425 1136 b 401 1114 408 1136 401 1131 l 401 979 b 425 956 401 963 408 956 z m 201 956 l 332 956 b 356 979 347 956 356 963 l 356 1114 b 332 1136 356 1131 349 1136 l 201 1136 b 178 1114 186 1136 178 1131 l 178 979 b 201 956 178 963 185 956 z "},"à":{"ha":760,"x_min":0,"x_max":0,"o":"m 263 -12 b 460 54 356 -12 392 3 b 490 43 475 65 486 61 l 493 24 b 519 0 494 7 503 0 l 682 0 b 706 24 699 0 706 7 l 706 592 b 650 838 706 726 689 799 b 389 900 607 879 538 900 b 104 833 219 899 149 878 b 42 639 72 801 53 739 b 64 615 40 624 47 615 b 254 617 118 614 203 614 b 281 640 269 618 278 625 b 303 710 286 681 292 700 b 379 729 314 722 333 729 b 453 711 424 729 442 722 b 471 626 465 700 471 675 l 471 590 b 453 569 471 578 465 571 l 315 546 b 94 474 169 526 125 506 b 36 264 53 432 36 379 b 86 32 36 129 50 68 b 263 -12 117 1 167 -12 z m 338 167 b 285 182 308 167 294 171 b 269 269 274 192 269 208 b 289 363 269 322 274 347 b 372 390 300 375 319 383 l 453 404 b 471 389 465 407 471 403 b 432 203 474 246 465 233 b 338 167 401 178 374 167 z m 488 971 l 403 1158 b 371 1178 397 1172 388 1178 l 236 1178 b 224 1156 218 1178 215 1171 l 333 967 b 365 947 340 953 350 947 l 472 947 b 488 971 490 947 496 954 z "},"å":{"ha":760,"x_min":0,"x_max":0,"o":"m 263 -12 b 460 54 356 -12 392 3 b 490 43 475 65 486 61 l 493 24 b 519 0 494 7 503 0 l 682 0 b 706 24 699 0 706 7 l 706 592 b 650 838 706 726 689 799 b 389 900 607 879 538 900 b 104 833 219 899 149 878 b 42 639 72 801 53 739 b 64 615 40 624 47 615 b 254 617 118 614 203 614 b 281 640 269 618 278 625 b 303 710 286 681 292 700 b 379 729 314 722 333 729 b 453 711 424 729 442 722 b 471 626 465 700 471 675 l 471 590 b 453 569 471 578 465 571 l 315 546 b 94 474 169 526 125 506 b 36 264 53 432 36 379 b 86 32 36 129 50 68 b 263 -12 117 1 167 -12 z m 338 167 b 285 182 308 167 294 171 b 269 269 274 192 269 208 b 289 363 269 322 274 347 b 372 390 300 375 319 383 l 453 404 b 471 389 465 407 471 403 b 432 203 474 246 465 233 b 338 167 401 178 374 167 z m 379 919 b 542 1075 475 919 542 985 b 379 1231 542 1165 475 1231 b 215 1075 282 1231 215 1164 b 379 919 215 986 282 919 z m 379 1019 b 333 1075 351 1019 333 1040 b 379 1131 333 1110 351 1131 b 422 1075 406 1131 424 1110 b 379 1019 424 1040 406 1019 z "},"ã":{"ha":760,"x_min":0,"x_max":0,"o":"m 263 -12 b 460 54 356 -12 392 3 b 490 43 475 65 486 61 l 493 24 b 519 0 494 7 503 0 l 682 0 b 706 24 699 0 706 7 l 706 592 b 650 838 706 726 689 799 b 389 900 607 879 538 900 b 104 833 219 899 149 878 b 42 639 72 801 53 739 b 64 615 40 624 47 615 b 254 617 118 614 203 614 b 281 640 269 618 278 625 b 303 710 286 681 292 700 b 379 729 314 722 333 729 b 453 711 424 729 442 722 b 471 626 465 700 471 675 l 471 590 b 453 569 471 578 465 571 l 315 546 b 94 474 169 526 125 506 b 36 264 53 432 36 379 b 86 32 36 129 50 68 b 263 -12 117 1 167 -12 z m 338 167 b 285 182 308 167 294 171 b 269 269 274 192 269 208 b 289 363 269 322 274 347 b 372 390 300 375 319 383 l 453 404 b 471 389 465 407 471 403 b 432 203 474 246 465 233 b 338 167 401 178 374 167 z m 486 935 b 568 965 519 935 547 944 b 581 1006 576 978 581 989 l 581 1093 b 564 1101 581 1111 576 1114 b 490 1075 539 1081 521 1075 b 406 1096 461 1075 436 1085 b 300 1122 376 1108 340 1122 b 217 1090 268 1122 238 1111 b 201 1053 207 1079 201 1068 l 201 961 b 221 953 201 943 208 942 b 296 979 247 975 265 979 b 381 958 324 979 350 969 b 486 935 410 946 446 935 z "},"æ":{"ha":1193,"x_min":0,"x_max":0,"o":"m 263 -12 b 460 54 356 -12 392 3 b 490 43 475 65 486 61 l 493 24 b 519 0 494 7 503 0 l 614 0 b 822 -18 660 -12 725 -18 b 1090 32 986 -18 1054 -4 b 1163 276 1129 68 1151 142 b 1140 301 1164 293 1157 300 b 954 303 1097 303 1025 304 b 928 279 938 303 929 296 b 901 176 919 210 915 190 b 825 158 889 167 872 158 b 732 181 776 158 747 165 b 706 307 718 194 710 222 l 706 389 b 721 396 708 393 714 396 l 1142 397 b 1165 421 1157 397 1165 404 b 1092 840 1165 714 1138 796 b 819 897 1051 881 979 897 b 599 871 708 897 642 889 b 389 900 554 890 490 900 b 104 833 219 899 149 878 b 42 639 72 801 53 739 b 64 615 40 624 47 615 b 254 617 118 614 203 614 b 281 640 269 618 278 625 b 303 710 286 681 292 700 b 379 729 314 722 333 729 b 453 711 424 729 442 722 b 471 626 465 700 471 675 l 471 590 b 453 569 471 578 465 571 l 315 546 b 94 474 169 526 125 506 b 36 264 53 432 36 379 b 86 32 36 129 50 68 b 263 -12 117 1 167 -12 z m 338 167 b 285 182 308 167 294 171 b 269 269 274 192 269 208 b 289 363 269 322 274 347 b 372 390 300 375 319 383 l 453 404 b 467 403 460 406 464 406 l 471 296 b 432 203 467 238 456 225 b 338 167 401 178 374 167 z m 706 569 b 732 703 711 653 718 688 b 815 722 744 714 767 722 b 901 703 867 722 889 715 b 926 571 914 690 921 658 b 910 553 928 558 922 553 l 724 551 b 706 569 711 551 706 556 z "},"b":{"ha":794,"x_min":0,"x_max":0,"o":"m 506 -15 b 685 35 606 -15 653 1 b 757 458 732 83 757 183 b 688 847 757 711 735 800 b 507 897 656 879 606 897 b 319 838 417 897 383 881 b 288 854 300 826 290 832 l 290 1117 b 267 1140 290 1133 283 1140 l 88 1140 b 64 1117 71 1140 64 1133 b 60 531 61 935 60 679 l 61 24 b 85 0 61 7 68 0 l 242 0 b 267 24 257 0 265 7 l 268 35 b 301 51 272 54 283 60 b 506 -15 376 6 400 -15 z m 426 178 b 335 214 390 178 360 190 b 289 449 303 243 289 267 b 324 671 289 615 297 643 b 410 701 343 689 371 701 b 492 678 457 701 478 692 b 518 446 511 658 518 614 b 492 201 518 264 510 219 b 426 178 476 188 456 178 z "},"c":{"ha":765,"x_min":0,"x_max":0,"o":"m 385 -19 b 664 46 553 -19 624 6 b 731 343 704 86 722 143 b 708 368 732 358 725 367 b 519 371 656 371 569 372 b 494 346 503 369 494 363 b 467 186 488 236 482 201 b 386 167 456 175 438 167 b 301 186 342 167 317 172 b 274 438 283 204 274 251 b 304 693 274 615 285 674 b 385 714 318 707 339 714 b 464 694 435 714 453 706 b 496 560 478 679 486 650 b 522 536 497 543 506 536 b 713 536 575 535 657 535 b 735 560 728 536 735 543 b 661 838 722 732 703 796 b 385 897 624 872 553 897 b 114 836 226 897 156 876 b 38 440 67 786 38 688 b 110 46 38 190 63 94 b 385 -19 151 6 215 -19 z "},"ç":{"ha":765,"x_min":0,"x_max":0,"o":"m 38 440 b 110 46 38 190 63 94 b 292 -17 143 14 190 -8 l 225 -182 b 242 -207 218 -199 224 -207 l 369 -207 b 399 -185 385 -207 394 -200 l 451 -18 b 664 46 572 -12 629 11 b 731 343 704 86 722 143 b 708 368 732 358 725 367 b 519 371 656 371 569 372 b 494 346 503 369 494 363 b 467 186 488 236 482 201 b 386 167 456 175 438 167 b 301 186 342 167 317 172 b 274 438 283 204 274 251 b 304 693 274 615 285 674 b 385 714 318 707 339 714 b 464 694 435 714 453 706 b 496 560 478 679 486 650 b 522 536 497 543 506 536 b 713 536 575 535 657 535 b 735 560 728 536 735 543 b 661 838 722 732 703 796 b 385 897 624 872 553 897 b 114 836 226 897 156 876 b 38 440 67 786 38 688 z "},"d":{"ha":794,"x_min":0,"x_max":0,"o":"m 289 -15 b 493 51 394 -15 418 6 b 526 35 511 60 522 54 l 528 24 b 553 0 529 7 538 0 l 710 0 b 733 24 726 0 733 7 l 735 531 b 731 1117 735 679 733 935 b 707 1140 731 1133 724 1140 l 528 1140 b 504 1117 511 1140 504 1133 l 507 854 b 475 838 504 832 494 826 b 288 897 411 881 378 897 b 107 847 189 897 139 879 b 38 458 60 800 38 711 b 110 35 38 183 63 83 b 289 -15 142 1 189 -15 z m 368 178 b 303 201 339 178 318 188 b 276 446 285 219 276 264 b 303 678 276 614 283 658 b 385 701 317 692 338 701 b 471 671 424 701 451 689 b 506 449 497 643 506 615 b 460 214 506 267 492 243 b 368 178 435 190 404 178 z "},"e":{"ha":765,"x_min":0,"x_max":0,"o":"m 392 -18 b 660 32 556 -18 624 -4 b 732 276 699 68 721 142 b 710 301 733 293 726 300 b 524 303 667 303 594 304 b 497 279 507 303 499 296 b 471 176 489 210 485 190 b 394 158 458 167 442 158 b 301 181 346 158 317 165 b 272 378 283 199 276 236 b 290 396 272 389 278 396 l 711 397 b 735 421 726 397 735 404 b 661 840 735 714 707 796 b 389 897 621 881 549 897 b 117 838 224 897 157 879 b 36 436 65 786 36 682 b 114 39 35 199 64 90 b 392 -18 154 -3 225 -18 z m 275 569 b 301 703 281 653 288 688 b 385 722 314 714 336 722 b 471 703 436 722 458 715 b 496 571 483 690 490 658 b 479 553 497 558 492 553 l 293 551 b 275 569 281 551 275 556 z "},"é":{"ha":765,"x_min":0,"x_max":0,"o":"m 392 -18 b 660 32 556 -18 624 -4 b 732 276 699 68 721 142 b 710 301 733 293 726 300 b 524 303 667 303 594 304 b 497 279 507 303 499 296 b 471 176 489 210 485 190 b 394 158 458 167 442 158 b 301 181 346 158 317 165 b 272 378 283 199 276 236 b 290 396 272 389 278 396 l 711 397 b 735 421 726 397 735 404 b 661 840 735 714 707 796 b 389 897 621 881 549 897 b 117 838 224 897 157 879 b 36 436 65 786 36 682 b 114 39 35 199 64 90 b 392 -18 154 -3 225 -18 z m 275 569 b 301 703 281 653 288 688 b 385 722 314 714 336 722 b 471 703 436 722 458 715 b 496 571 483 690 490 658 b 479 553 497 558 492 553 l 293 551 b 275 569 281 551 275 556 z m 294 947 l 399 947 b 432 967 414 947 424 953 l 546 1156 b 533 1178 554 1172 551 1178 l 401 1178 b 369 1158 386 1178 376 1172 l 281 971 b 294 947 272 954 276 947 z "},"ê":{"ha":765,"x_min":0,"x_max":0,"o":"m 392 -18 b 660 32 556 -18 624 -4 b 732 276 699 68 721 142 b 710 301 733 293 726 300 b 524 303 667 303 594 304 b 497 279 507 303 499 296 b 471 176 489 210 485 190 b 394 158 458 167 442 158 b 301 181 346 158 317 165 b 272 378 283 199 276 236 b 290 396 272 389 278 396 l 711 397 b 735 421 726 397 735 404 b 661 840 735 714 707 796 b 389 897 621 881 549 897 b 117 838 224 897 157 879 b 36 436 65 786 36 682 b 114 39 35 199 64 90 b 392 -18 154 -3 225 -18 z m 275 569 b 301 703 281 653 288 688 b 385 722 314 714 336 722 b 471 703 436 722 458 715 b 496 571 483 690 490 658 b 479 553 497 558 492 553 l 293 551 b 275 569 281 551 275 556 z m 290 1158 l 171 968 b 183 946 163 953 165 946 l 296 946 b 331 965 311 946 322 951 l 385 1049 l 436 965 b 469 946 444 951 456 946 l 582 946 b 594 968 600 946 603 953 l 478 1157 b 444 1176 469 1171 458 1176 l 325 1176 b 290 1158 310 1176 300 1171 z "},"ë":{"ha":765,"x_min":0,"x_max":0,"o":"m 392 -18 b 660 32 556 -18 624 -4 b 732 276 699 68 721 142 b 710 301 733 293 726 300 b 524 303 667 303 594 304 b 497 279 507 303 499 296 b 471 176 489 210 485 190 b 394 158 458 167 442 158 b 301 181 346 158 317 165 b 272 378 283 199 276 236 b 290 396 272 389 278 396 l 711 397 b 735 421 726 397 735 404 b 661 840 735 714 707 796 b 389 897 621 881 549 897 b 117 838 224 897 157 879 b 36 436 65 786 36 682 b 114 39 35 199 64 90 b 392 -18 154 -3 225 -18 z m 275 569 b 301 703 281 653 288 688 b 385 722 314 714 336 722 b 471 703 436 722 458 715 b 496 571 483 690 490 658 b 479 553 497 558 492 553 l 293 551 b 275 569 281 551 275 556 z m 432 956 l 564 956 b 588 979 581 956 588 963 l 588 1114 b 564 1136 588 1131 581 1136 l 432 1136 b 408 1114 415 1136 408 1131 l 408 979 b 432 956 408 963 415 956 z m 208 956 l 339 956 b 363 979 354 956 363 963 l 363 1114 b 339 1136 363 1131 356 1136 l 208 1136 b 185 1114 193 1136 185 1131 l 185 979 b 208 956 185 963 192 956 z "},"è":{"ha":765,"x_min":0,"x_max":0,"o":"m 392 -18 b 660 32 556 -18 624 -4 b 732 276 699 68 721 142 b 710 301 733 293 726 300 b 524 303 667 303 594 304 b 497 279 507 303 499 296 b 471 176 489 210 485 190 b 394 158 458 167 442 158 b 301 181 346 158 317 165 b 272 378 283 199 276 236 b 290 396 272 389 278 396 l 711 397 b 735 421 726 397 735 404 b 661 840 735 714 707 796 b 389 897 621 881 549 897 b 117 838 224 897 157 879 b 36 436 65 786 36 682 b 114 39 35 199 64 90 b 392 -18 154 -3 225 -18 z m 275 569 b 301 703 281 653 288 688 b 385 722 314 714 336 722 b 471 703 436 722 458 715 b 496 571 483 690 490 658 b 479 553 497 558 492 553 l 293 551 b 275 569 281 551 275 556 z m 494 971 l 410 1158 b 378 1178 404 1172 394 1178 l 243 1178 b 231 1156 225 1178 222 1171 l 340 967 b 372 947 347 953 357 947 l 479 947 b 494 971 497 947 503 954 z "},"f":{"ha":594,"x_min":0,"x_max":0,"o":"m 171 0 l 357 0 b 381 24 374 0 381 7 b 376 678 381 186 376 503 b 394 696 376 689 382 696 l 554 696 b 578 719 571 696 578 703 l 578 857 b 554 881 578 874 571 881 l 393 881 b 374 899 381 881 374 886 l 374 926 b 439 975 374 957 390 975 b 564 972 490 975 535 974 b 588 994 579 971 588 978 l 588 1119 b 564 1146 588 1136 581 1144 b 397 1150 524 1150 454 1150 b 149 960 232 1150 149 1072 l 149 899 b 131 881 149 886 143 881 l 36 881 b 13 857 21 881 13 874 l 13 719 b 36 696 13 703 19 696 l 132 696 b 150 678 144 696 150 690 l 147 24 b 171 0 147 7 154 0 z "},"g":{"ha":742,"x_min":0,"x_max":0,"o":"m 356 -294 b 692 -219 558 -294 646 -268 b 740 -54 725 -185 740 -129 b 692 100 740 17 722 69 b 439 168 657 135 599 161 b 274 192 301 174 283 182 b 263 218 267 200 263 208 b 282 276 263 233 268 251 b 317 294 290 290 301 296 l 383 294 b 633 349 536 294 600 313 b 701 601 672 386 701 439 b 644 832 701 725 682 797 b 603 860 632 844 618 853 b 588 882 593 865 588 871 b 628 918 588 908 601 918 l 671 918 b 694 942 688 918 694 925 l 694 1081 b 671 1104 694 1097 688 1104 b 503 1064 568 1103 532 1092 b 451 911 474 1035 463 999 b 431 894 450 899 443 893 b 364 896 413 896 389 896 b 107 838 217 896 146 876 b 38 596 60 790 38 713 b 119 333 38 461 61 381 b 124 299 133 322 135 313 b 39 138 61 228 39 183 b 79 42 39 99 51 68 b 83 6 93 31 94 19 b 19 -140 39 -50 19 -94 b 50 -231 19 -179 29 -210 b 356 -294 89 -269 164 -294 z m 383 -140 b 238 -114 285 -140 251 -131 b 226 -78 231 -106 226 -97 b 244 -15 226 -57 233 -37 b 272 0 251 -4 260 0 l 378 -7 b 517 -35 469 -12 504 -21 b 531 -76 526 -46 531 -57 b 517 -114 531 -92 526 -106 b 383 -140 501 -131 472 -140 z m 372 463 b 283 481 321 463 297 468 b 261 594 268 497 261 531 b 285 708 261 657 268 693 b 372 729 299 722 319 729 b 454 710 418 729 442 724 b 478 599 471 693 478 660 b 456 482 478 531 471 499 b 372 463 443 469 422 463 z "},"h":{"ha":782,"x_min":0,"x_max":0,"o":"m 85 0 l 271 0 b 294 24 288 0 294 7 l 293 442 b 329 667 293 618 307 644 b 406 696 346 683 367 696 b 472 678 443 696 461 690 b 492 461 490 661 492 640 l 490 24 b 514 0 490 7 497 0 l 703 0 b 726 24 718 0 726 7 l 728 471 b 678 854 728 735 724 810 b 501 897 647 882 597 897 b 318 835 417 897 379 883 b 288 850 299 824 290 828 b 292 1117 288 919 289 1011 b 269 1140 292 1132 286 1140 l 88 1140 b 64 1117 71 1140 64 1133 b 60 424 61 872 60 650 l 61 24 b 85 0 61 7 68 0 z "},"i":{"ha":350,"x_min":0,"x_max":0,"o":"m 85 0 l 265 0 b 289 24 282 0 289 7 b 289 857 292 236 290 640 b 265 881 289 874 282 881 l 85 881 b 61 857 68 881 61 874 b 61 24 58 646 58 226 b 85 0 61 7 68 0 z m 83 946 l 265 946 b 290 969 282 946 290 953 b 290 1126 292 1013 292 1079 b 265 1150 290 1142 282 1150 l 83 1150 b 58 1126 68 1150 60 1143 b 58 969 57 1079 57 1015 b 83 946 60 954 67 946 z "},"ı":{"ha":357,"x_min":0,"x_max":0,"o":"m 81 0 l 275 0 b 292 17 285 0 292 4 b 292 857 293 229 293 639 b 275 872 292 868 286 872 l 81 872 b 65 857 71 872 65 869 b 65 17 63 646 61 218 b 81 0 65 6 71 0 z "},"í":{"ha":357,"x_min":0,"x_max":0,"o":"m 81 0 l 275 0 b 292 17 285 0 292 4 b 292 857 293 229 293 639 b 275 872 292 868 286 872 l 81 872 b 65 857 71 872 65 869 b 65 17 63 646 61 218 b 81 0 65 6 71 0 z m 89 940 l 193 940 b 226 960 208 940 218 946 l 340 1149 b 328 1171 349 1165 346 1171 l 196 1171 b 164 1151 181 1171 171 1165 l 75 964 b 89 940 67 947 71 940 z "},"î":{"ha":357,"x_min":0,"x_max":0,"o":"m 81 0 l 275 0 b 292 17 285 0 292 4 b 292 857 293 229 293 639 b 275 872 292 868 286 872 l 81 872 b 65 857 71 872 65 869 b 65 17 63 646 61 218 b 81 0 65 6 71 0 z m 85 1151 l -35 961 b -22 939 -43 946 -40 939 l 90 939 b 125 958 106 939 117 944 l 179 1042 l 231 958 b 264 939 239 944 250 939 l 376 939 b 389 961 394 939 397 946 l 272 1150 b 239 1169 264 1164 253 1169 l 119 1169 b 85 1151 104 1169 94 1164 z "},"ï":{"ha":357,"x_min":0,"x_max":0,"o":"m 81 0 l 275 0 b 292 17 285 0 292 4 b 292 857 293 229 293 639 b 275 872 292 868 286 872 l 81 872 b 65 857 71 872 65 869 b 65 17 63 646 61 218 b 81 0 65 6 71 0 z m 226 949 l 358 949 b 382 972 375 949 382 956 l 382 1107 b 358 1129 382 1124 375 1129 l 226 1129 b 203 1107 210 1129 203 1124 l 203 972 b 226 949 203 956 210 949 z m 3 949 l 133 949 b 157 972 149 949 157 956 l 157 1107 b 133 1129 157 1124 150 1129 l 3 1129 b -21 1107 -12 1129 -21 1124 l -21 972 b 3 949 -21 956 -14 949 z "},"ì":{"ha":357,"x_min":0,"x_max":0,"o":"m 81 0 l 275 0 b 292 17 285 0 292 4 b 292 857 293 229 293 639 b 275 872 292 868 286 872 l 81 872 b 65 857 71 872 65 869 b 65 17 63 646 61 218 b 81 0 65 6 71 0 z m 289 964 l 204 1151 b 172 1171 199 1165 189 1171 l 38 1171 b 25 1149 19 1171 17 1164 l 135 960 b 167 940 142 946 151 940 l 274 940 b 289 964 292 940 297 947 z "},"ĳ":{"ha":703,"x_min":0,"x_max":0,"o":"m 85 0 l 265 0 b 289 24 282 0 289 7 b 289 857 292 236 290 640 b 265 881 289 874 282 881 l 85 881 b 61 857 68 881 61 874 b 61 24 58 646 58 226 b 85 0 61 7 68 0 z m 83 946 l 265 946 b 290 969 282 946 290 953 b 290 1126 292 1013 292 1079 b 265 1150 290 1142 282 1150 l 83 1150 b 58 1126 68 1150 60 1143 b 58 969 57 1079 57 1015 b 83 946 60 954 67 946 z m 431 -275 b 643 -74 601 -275 643 -207 b 639 857 643 167 642 631 b 615 881 639 874 632 881 l 433 881 b 410 857 418 881 410 874 b 413 -36 408 603 413 219 b 354 -90 413 -74 404 -90 l 271 -87 b 247 -108 256 -86 247 -92 l 249 -244 b 271 -271 249 -261 256 -268 b 431 -275 314 -275 375 -275 z m 433 946 l 615 946 b 640 969 632 946 639 953 b 640 1126 642 1014 642 1082 b 615 1150 639 1142 632 1150 l 433 1150 b 408 1126 418 1150 410 1143 b 408 969 407 1082 407 1013 b 433 946 410 954 417 946 z "},"j":{"ha":356,"x_min":0,"x_max":0,"o":"m 83 -275 b 296 -74 254 -275 296 -207 b 292 857 296 167 294 631 b 268 881 292 874 285 881 l 86 881 b 63 857 71 881 63 874 b 65 -36 61 603 65 219 b 7 -90 65 -74 57 -90 l -76 -87 b -100 -108 -92 -86 -100 -92 l -99 -244 b -76 -271 -99 -261 -92 -268 b 83 -275 -33 -275 28 -275 z m 86 946 l 268 946 b 293 969 285 946 292 953 b 293 1126 294 1014 294 1082 b 268 1150 292 1142 285 1150 l 86 1150 b 61 1126 71 1150 63 1143 b 61 969 60 1082 60 1013 b 86 946 63 954 69 946 z "},"ȷ":{"ha":358,"x_min":0,"x_max":0,"o":"m 85 -274 b 297 -72 256 -274 297 -206 b 292 849 297 169 294 624 b 268 872 292 865 285 872 l 88 872 b 64 849 71 872 64 867 b 65 -35 63 596 65 222 b 7 -89 65 -72 57 -89 l -75 -86 b -99 -107 -92 -85 -99 -90 l -99 -242 b -75 -268 -99 -258 -92 -267 b 85 -274 -32 -272 28 -274 z "},"k":{"ha":750,"x_min":0,"x_max":0,"o":"m 86 0 l 281 0 b 304 24 296 0 304 7 b 299 393 303 143 299 276 b 321 413 297 414 310 421 b 483 21 379 292 432 153 b 515 0 489 7 499 0 l 733 0 b 749 24 751 0 757 7 b 529 501 671 194 589 381 b 532 540 522 517 522 528 b 740 858 600 636 686 763 b 726 881 749 874 744 881 l 514 881 b 479 861 497 881 488 875 b 326 604 431 776 385 692 b 296 600 318 589 303 590 b 303 1113 296 740 301 965 b 279 1136 303 1129 296 1136 l 86 1136 b 63 1113 71 1136 63 1129 b 63 24 60 768 60 342 b 86 0 63 7 69 0 z "},"l":{"ha":354,"x_min":0,"x_max":0,"o":"m 86 0 l 268 0 b 292 24 285 0 292 7 b 292 1117 296 328 294 838 b 268 1140 292 1132 285 1140 l 86 1140 b 63 1117 69 1140 63 1133 b 63 24 60 825 58 344 b 86 0 63 7 69 0 z "},"m":{"ha":1189,"x_min":0,"x_max":0,"o":"m 83 0 l 271 0 b 294 24 288 0 294 7 l 293 472 b 329 671 293 613 300 642 b 400 697 346 688 365 697 b 463 679 431 697 449 693 b 482 479 478 665 481 636 l 479 24 b 503 0 479 7 486 0 l 690 0 b 714 24 707 0 714 7 l 715 478 b 750 672 715 617 724 646 b 821 697 767 689 785 697 b 881 679 849 697 868 693 b 900 486 896 665 900 639 l 900 24 b 924 0 900 7 907 0 l 1110 0 b 1133 24 1126 0 1133 7 l 1135 526 b 1085 853 1135 760 1129 810 b 917 897 1054 882 1010 897 b 718 818 821 897 778 876 b 685 824 704 806 693 807 b 503 897 651 882 610 897 b 314 828 410 897 376 882 b 282 839 296 814 286 818 l 281 857 b 256 881 279 874 272 881 l 86 881 b 61 857 69 881 63 874 b 58 453 58 735 58 601 l 60 24 b 83 0 60 7 67 0 z "},"n":{"ha":779,"x_min":0,"x_max":0,"o":"m 85 0 l 268 0 b 292 24 283 0 292 7 l 293 465 b 325 663 293 613 300 638 b 417 692 346 683 369 693 b 474 675 449 692 460 688 b 490 457 486 661 490 643 b 492 24 490 285 489 131 b 515 0 492 7 499 0 l 699 0 b 722 24 714 0 722 7 b 724 490 724 117 724 253 b 675 853 724 758 719 808 b 501 897 647 882 597 897 b 315 828 414 897 379 882 b 282 842 297 815 288 819 l 281 857 b 254 881 279 874 271 881 l 86 881 b 63 857 71 881 63 874 b 58 438 60 710 58 553 b 61 24 58 260 58 126 b 85 0 61 7 68 0 z "},"ñ":{"ha":779,"x_min":0,"x_max":0,"o":"m 85 0 l 268 0 b 292 24 283 0 292 7 l 293 465 b 325 663 293 613 300 638 b 417 692 346 683 369 693 b 474 675 449 692 460 688 b 490 457 486 661 490 643 b 492 24 490 285 489 131 b 515 0 492 7 499 0 l 699 0 b 722 24 714 0 722 7 b 724 490 724 117 724 253 b 675 853 724 758 719 808 b 501 897 647 882 597 897 b 315 828 414 897 379 882 b 282 842 297 815 288 819 l 281 857 b 254 881 279 874 271 881 l 86 881 b 63 857 71 881 63 874 b 58 438 60 710 58 553 b 61 24 58 260 58 126 b 85 0 61 7 68 0 z m 494 935 b 576 965 528 935 556 944 b 589 1006 585 978 589 989 l 589 1093 b 572 1101 589 1111 585 1114 b 499 1075 547 1081 529 1075 b 414 1096 469 1075 444 1085 b 308 1122 385 1108 349 1122 b 225 1090 276 1122 246 1111 b 210 1053 215 1079 210 1068 l 210 961 b 229 953 210 943 217 942 b 304 979 256 975 274 979 b 389 958 332 979 358 969 b 494 935 418 946 454 935 z "},"o":{"ha":771,"x_min":0,"x_max":0,"o":"m 383 -17 b 663 46 561 -17 624 6 b 735 446 711 96 735 206 b 663 836 735 682 711 788 b 383 897 622 876 560 899 b 110 835 218 897 150 874 b 36 446 60 785 36 681 b 108 47 36 206 60 96 b 383 -17 149 7 217 -17 z m 385 168 b 300 189 343 168 314 175 b 272 440 281 210 272 265 b 303 692 272 608 282 671 b 385 714 318 707 344 714 b 467 692 425 714 453 707 b 499 440 489 671 499 608 b 472 192 499 267 492 211 b 385 168 457 175 428 168 z "},"ó":{"ha":771,"x_min":0,"x_max":0,"o":"m 383 -17 b 663 46 561 -17 624 6 b 735 446 711 96 735 206 b 663 836 735 682 711 788 b 383 897 622 876 560 899 b 110 835 218 897 150 874 b 36 446 60 785 36 681 b 108 47 36 206 60 96 b 383 -17 149 7 217 -17 z m 385 168 b 300 189 343 168 314 175 b 272 440 281 210 272 265 b 303 692 272 608 282 671 b 385 714 318 707 344 714 b 467 692 425 714 453 707 b 499 440 489 671 499 608 b 472 192 499 267 492 211 b 385 168 457 175 428 168 z m 296 947 l 400 947 b 433 967 415 947 425 953 l 547 1156 b 535 1178 556 1172 553 1178 l 403 1178 b 371 1158 388 1178 378 1172 l 282 971 b 296 947 274 954 278 947 z "},"ô":{"ha":771,"x_min":0,"x_max":0,"o":"m 383 -17 b 663 46 561 -17 624 6 b 735 446 711 96 735 206 b 663 836 735 682 711 788 b 383 897 622 876 560 899 b 110 835 218 897 150 874 b 36 446 60 785 36 681 b 108 47 36 206 60 96 b 383 -17 149 7 217 -17 z m 385 168 b 300 189 343 168 314 175 b 272 440 281 210 272 265 b 303 692 272 608 282 671 b 385 714 318 707 344 714 b 467 692 425 714 453 707 b 499 440 489 671 499 608 b 472 192 499 267 492 211 b 385 168 457 175 428 168 z m 292 1158 l 172 968 b 185 946 164 953 167 946 l 297 946 b 332 965 313 946 324 951 l 386 1049 l 438 965 b 471 946 446 951 457 946 l 583 946 b 596 968 601 946 604 953 l 479 1157 b 446 1176 471 1171 460 1176 l 326 1176 b 292 1158 311 1176 301 1171 z "},"ö":{"ha":771,"x_min":0,"x_max":0,"o":"m 383 -17 b 663 46 561 -17 624 6 b 735 446 711 96 735 206 b 663 836 735 682 711 788 b 383 897 622 876 560 899 b 110 835 218 897 150 874 b 36 446 60 785 36 681 b 108 47 36 206 60 96 b 383 -17 149 7 217 -17 z m 385 168 b 300 189 343 168 314 175 b 272 440 281 210 272 265 b 303 692 272 608 282 671 b 385 714 318 707 344 714 b 467 692 425 714 453 707 b 499 440 489 671 499 608 b 472 192 499 267 492 211 b 385 168 457 175 428 168 z m 433 956 l 565 956 b 589 979 582 956 589 963 l 589 1114 b 565 1136 589 1131 582 1136 l 433 1136 b 410 1114 417 1136 410 1131 l 410 979 b 433 956 410 963 417 956 z m 210 956 l 340 956 b 364 979 356 956 364 963 l 364 1114 b 340 1136 364 1131 357 1136 l 210 1136 b 186 1114 194 1136 186 1131 l 186 979 b 210 956 186 963 193 956 z "},"ò":{"ha":771,"x_min":0,"x_max":0,"o":"m 383 -17 b 663 46 561 -17 624 6 b 735 446 711 96 735 206 b 663 836 735 682 711 788 b 383 897 622 876 560 899 b 110 835 218 897 150 874 b 36 446 60 785 36 681 b 108 47 36 206 60 96 b 383 -17 149 7 217 -17 z m 385 168 b 300 189 343 168 314 175 b 272 440 281 210 272 265 b 303 692 272 608 282 671 b 385 714 318 707 344 714 b 467 692 425 714 453 707 b 499 440 489 671 499 608 b 472 192 499 267 492 211 b 385 168 457 175 428 168 z m 496 971 l 411 1158 b 379 1178 406 1172 396 1178 l 244 1178 b 232 1156 226 1178 224 1171 l 342 967 b 374 947 349 953 358 947 l 481 947 b 496 971 499 947 504 954 z "},"ø":{"ha":771,"x_min":0,"x_max":0,"o":"m 383 -17 b 663 46 561 -17 624 6 b 735 446 711 96 735 206 b 663 836 735 682 711 788 b 581 881 643 856 619 869 l 629 1038 b 611 1063 635 1054 629 1063 l 536 1063 b 507 1040 521 1063 511 1056 l 463 896 l 383 897 b 110 835 218 897 150 874 b 36 446 60 785 36 681 b 108 47 36 206 60 96 b 189 3 126 29 151 14 l 138 -167 b 154 -192 132 -185 138 -192 l 232 -192 b 260 -171 246 -192 254 -185 l 307 -15 z m 385 168 l 364 168 l 494 594 b 499 440 497 557 499 507 b 472 192 499 267 492 211 b 385 168 457 175 428 168 z m 272 440 b 303 692 272 608 282 671 b 385 714 318 707 344 714 l 407 713 l 276 286 b 272 440 274 324 272 372 z "},"õ":{"ha":771,"x_min":0,"x_max":0,"o":"m 383 -17 b 663 46 561 -17 624 6 b 735 446 711 96 735 206 b 663 836 735 682 711 788 b 383 897 622 876 560 899 b 110 835 218 897 150 874 b 36 446 60 785 36 681 b 108 47 36 206 60 96 b 383 -17 149 7 217 -17 z m 385 168 b 300 189 343 168 314 175 b 272 440 281 210 272 265 b 303 692 272 608 282 671 b 385 714 318 707 344 714 b 467 692 425 714 453 707 b 499 440 489 671 499 608 b 472 192 499 267 492 211 b 385 168 457 175 428 168 z m 494 935 b 576 965 528 935 556 944 b 589 1006 585 978 589 989 l 589 1093 b 572 1101 589 1111 585 1114 b 499 1075 547 1081 529 1075 b 414 1096 469 1075 444 1085 b 308 1122 385 1108 349 1122 b 225 1090 276 1122 246 1111 b 210 1053 215 1079 210 1068 l 210 961 b 229 953 210 943 217 942 b 304 979 256 975 274 979 b 389 958 332 979 358 969 b 494 935 418 946 454 935 z "},"œ":{"ha":1218,"x_min":0,"x_max":0,"o":"m 383 -17 b 610 11 500 -17 567 -7 b 847 -18 656 -10 725 -18 b 1115 32 1011 -18 1079 -4 b 1188 276 1154 68 1176 142 b 1165 301 1189 293 1182 300 b 979 303 1122 303 1050 304 b 953 279 963 303 954 296 b 926 176 944 210 940 190 b 850 158 914 167 897 158 b 757 181 801 158 772 165 b 731 300 743 194 736 221 l 735 393 b 746 396 738 394 740 396 l 1167 397 b 1190 421 1182 397 1190 404 b 1117 840 1190 714 1163 796 b 844 897 1076 881 1004 897 b 617 868 728 897 660 888 b 383 897 572 888 506 899 b 110 835 218 897 150 874 b 36 446 60 785 36 681 b 108 47 36 206 60 96 b 383 -17 149 7 217 -17 z m 385 168 b 300 189 343 168 314 175 b 272 440 281 210 272 265 b 303 692 272 608 282 671 b 385 714 318 707 344 714 b 467 692 425 714 453 707 b 496 572 482 678 492 644 b 492 436 493 533 492 488 b 496 292 492 382 493 333 b 472 192 492 231 485 204 b 385 168 457 175 428 168 z m 732 582 b 757 703 738 656 743 689 b 840 722 769 714 792 722 b 926 703 892 722 914 715 b 951 571 939 690 946 658 b 935 553 953 558 947 553 l 749 551 b 732 558 740 551 735 553 z "},"p":{"ha":792,"x_min":0,"x_max":0,"o":"m 83 -260 l 271 -260 b 294 -236 286 -260 294 -253 l 293 11 b 324 29 294 31 304 38 b 511 -17 383 -1 422 -17 b 685 31 604 -17 654 0 b 754 428 728 74 754 139 b 682 850 754 735 731 801 b 507 897 651 882 604 897 b 324 829 432 897 392 876 b 289 846 304 818 293 824 l 289 857 b 264 881 288 872 281 881 l 85 881 b 61 857 69 881 61 874 b 58 375 61 717 58 561 l 60 -236 b 83 -260 60 -253 67 -260 z m 425 175 b 329 211 382 175 354 185 b 289 433 299 242 289 264 b 325 667 289 613 300 640 b 417 703 346 688 376 703 b 492 681 457 703 475 696 b 518 435 510 661 518 610 b 493 199 518 261 511 217 b 425 175 476 182 456 175 z "},"þ":{"ha":797,"x_min":0,"x_max":0,"o":"m 85 -258 l 272 -258 b 296 -235 288 -258 296 -251 l 294 18 b 308 38 294 29 297 38 b 358 14 322 38 332 26 b 513 -15 401 -6 435 -15 b 690 31 610 -15 660 0 b 754 425 733 75 754 140 b 689 842 754 726 736 794 b 508 889 658 874 614 889 b 360 850 429 889 392 875 b 308 813 332 828 322 813 b 297 826 300 813 297 817 l 296 1121 b 272 1144 296 1138 289 1144 l 86 1144 b 63 1121 71 1144 63 1138 l 60 372 l 61 -235 b 85 -258 61 -251 68 -258 z m 426 171 b 329 207 382 171 354 181 b 292 428 301 236 292 258 b 319 661 292 607 297 638 b 413 694 339 681 369 694 b 494 672 458 694 478 689 b 518 429 511 656 518 619 b 496 194 518 240 513 211 b 426 171 479 178 460 171 z "},"q":{"ha":792,"x_min":0,"x_max":0,"o":"m 521 -260 l 708 -260 b 732 -236 725 -260 732 -253 l 733 375 b 731 857 733 561 731 717 b 707 881 731 874 722 881 l 528 881 b 503 857 511 881 504 872 l 503 846 b 468 829 499 824 488 818 b 285 897 400 876 360 897 b 110 850 188 897 140 882 b 38 428 61 801 38 735 b 107 31 38 139 64 74 b 281 -17 138 0 188 -17 b 468 29 369 -17 408 -1 b 499 11 488 38 497 31 l 497 -236 b 521 -260 497 -253 506 -260 z m 367 175 b 299 199 336 175 315 182 b 274 435 281 217 274 261 b 300 681 274 610 282 661 b 375 703 317 696 335 703 b 467 667 415 703 446 688 b 503 433 492 640 503 613 b 463 211 503 264 493 242 b 367 175 438 185 410 175 z "},"r":{"ha":697,"x_min":0,"x_max":0,"o":"m 79 0 l 265 0 b 289 24 282 0 289 7 l 289 561 b 314 675 289 635 294 656 b 379 699 331 692 349 699 b 439 682 414 699 426 693 b 458 500 451 668 454 646 b 482 476 458 483 465 476 l 661 476 b 685 500 678 476 685 483 b 633 853 678 760 668 818 b 479 896 604 883 564 896 b 299 829 394 896 361 882 b 265 842 281 815 271 819 l 264 857 b 238 881 261 874 254 881 l 82 881 b 58 857 65 881 58 874 b 56 464 56 738 56 614 l 56 24 b 79 0 56 7 63 0 z "},"s":{"ha":726,"x_min":0,"x_max":0,"o":"m 367 -15 b 640 40 550 -15 607 6 b 699 263 678 78 699 153 b 640 483 699 378 679 443 b 411 550 610 513 561 528 b 278 588 314 564 293 571 b 260 651 265 599 260 617 b 276 714 260 679 265 703 b 357 731 286 725 301 731 b 442 713 414 731 429 724 b 463 646 451 701 457 682 b 489 621 465 631 472 622 b 676 621 551 618 615 618 b 699 644 693 621 700 628 b 639 839 688 749 671 807 b 363 897 607 871 557 897 b 86 838 181 897 118 871 b 31 639 51 801 31 728 b 86 435 31 533 47 472 b 299 364 115 404 172 386 b 449 324 411 346 435 338 b 469 239 463 308 469 288 b 454 169 469 201 464 181 b 363 153 443 158 422 153 b 290 171 318 153 301 160 b 267 267 275 183 271 210 b 242 290 265 283 258 290 b 51 290 189 292 117 292 b 29 265 36 289 28 282 b 88 46 38 136 56 82 b 367 -15 124 10 192 -15 z "},"t":{"ha":767,"x_min":0,"x_max":0,"o":"m 439 -18 b 678 36 590 -18 638 -3 b 738 357 717 75 728 121 b 714 382 738 374 731 382 b 557 383 664 385 610 385 b 533 360 542 383 533 376 b 510 176 525 207 522 189 b 447 161 499 164 483 161 b 382 213 393 161 382 175 b 385 668 382 324 382 553 b 403 686 385 681 390 688 l 711 686 b 735 710 728 686 735 693 l 736 857 b 713 881 736 874 729 881 l 407 881 b 389 899 394 881 389 886 l 389 1029 b 365 1053 389 1046 382 1053 l 200 1053 b 174 1029 183 1053 175 1046 l 164 899 b 143 881 163 886 157 881 l 44 881 b 21 857 28 881 21 874 l 19 708 b 43 686 19 693 26 686 l 140 686 b 158 668 153 688 158 682 b 151 174 156 517 151 271 b 439 -18 151 36 197 -18 z "},"u":{"ha":779,"x_min":0,"x_max":0,"o":"m 694 881 l 511 881 b 488 857 496 881 488 874 l 486 415 b 454 218 486 268 479 243 b 363 189 433 197 410 188 b 306 206 331 189 319 193 b 289 424 293 219 289 238 b 288 857 289 596 290 750 b 264 881 288 874 281 881 l 81 881 b 57 857 65 881 57 874 b 56 390 56 764 56 628 b 104 28 56 122 60 72 b 278 -17 132 -1 182 -17 b 464 53 365 -17 400 -1 b 497 39 482 65 492 61 l 499 24 b 525 0 500 7 508 0 l 693 0 b 717 24 708 0 717 7 b 721 443 719 171 721 328 b 718 857 721 621 721 754 b 694 881 718 874 711 881 z "},"ú":{"ha":779,"x_min":0,"x_max":0,"o":"m 694 881 l 511 881 b 488 857 496 881 488 874 l 486 415 b 454 218 486 268 479 243 b 363 189 433 197 410 188 b 306 206 331 189 319 193 b 289 424 293 219 289 238 b 288 857 289 596 290 750 b 264 881 288 874 281 881 l 81 881 b 57 857 65 881 57 874 b 56 390 56 764 56 628 b 104 28 56 122 60 72 b 278 -17 132 -1 182 -17 b 464 53 365 -17 400 -1 b 497 39 482 65 492 61 l 499 24 b 525 0 500 7 508 0 l 693 0 b 717 24 708 0 717 7 b 721 443 719 171 721 328 b 718 857 721 621 721 754 b 694 881 718 874 711 881 z m 282 940 l 386 940 b 419 960 401 940 411 946 l 533 1149 b 521 1171 542 1165 539 1171 l 389 1171 b 357 1151 374 1171 364 1165 l 268 964 b 282 940 260 947 264 940 z "},"û":{"ha":779,"x_min":0,"x_max":0,"o":"m 694 881 l 511 881 b 488 857 496 881 488 874 l 486 415 b 454 218 486 268 479 243 b 363 189 433 197 410 188 b 306 206 331 189 319 193 b 289 424 293 219 289 238 b 288 857 289 596 290 750 b 264 881 288 874 281 881 l 81 881 b 57 857 65 881 57 874 b 56 390 56 764 56 628 b 104 28 56 122 60 72 b 278 -17 132 -1 182 -17 b 464 53 365 -17 400 -1 b 497 39 482 65 492 61 l 499 24 b 525 0 500 7 508 0 l 693 0 b 717 24 708 0 717 7 b 721 443 719 171 721 328 b 718 857 721 621 721 754 b 694 881 718 874 711 881 z m 278 1151 l 158 961 b 171 939 150 946 153 939 l 283 939 b 318 958 299 939 310 944 l 372 1042 l 424 958 b 457 939 432 944 443 939 l 569 939 b 582 961 588 939 590 946 l 465 1150 b 432 1169 457 1164 446 1169 l 313 1169 b 278 1151 297 1169 288 1164 z "},"ü":{"ha":779,"x_min":0,"x_max":0,"o":"m 694 881 l 511 881 b 488 857 496 881 488 874 l 486 415 b 454 218 486 268 479 243 b 363 189 433 197 410 188 b 306 206 331 189 319 193 b 289 424 293 219 289 238 b 288 857 289 596 290 750 b 264 881 288 874 281 881 l 81 881 b 57 857 65 881 57 874 b 56 390 56 764 56 628 b 104 28 56 122 60 72 b 278 -17 132 -1 182 -17 b 464 53 365 -17 400 -1 b 497 39 482 65 492 61 l 499 24 b 525 0 500 7 508 0 l 693 0 b 717 24 708 0 717 7 b 721 443 719 171 721 328 b 718 857 721 621 721 754 b 694 881 718 874 711 881 z m 419 949 l 551 949 b 575 972 568 949 575 956 l 575 1107 b 551 1129 575 1124 568 1129 l 419 1129 b 396 1107 403 1129 396 1124 l 396 972 b 419 949 396 956 403 949 z m 196 949 l 326 949 b 350 972 342 949 350 956 l 350 1107 b 326 1129 350 1124 343 1129 l 196 1129 b 172 1107 181 1129 172 1124 l 172 972 b 196 949 172 956 179 949 z "},"ù":{"ha":779,"x_min":0,"x_max":0,"o":"m 694 881 l 511 881 b 488 857 496 881 488 874 l 486 415 b 454 218 486 268 479 243 b 363 189 433 197 410 188 b 306 206 331 189 319 193 b 289 424 293 219 289 238 b 288 857 289 596 290 750 b 264 881 288 874 281 881 l 81 881 b 57 857 65 881 57 874 b 56 390 56 764 56 628 b 104 28 56 122 60 72 b 278 -17 132 -1 182 -17 b 464 53 365 -17 400 -1 b 497 39 482 65 492 61 l 499 24 b 525 0 500 7 508 0 l 693 0 b 717 24 708 0 717 7 b 721 443 719 171 721 328 b 718 857 721 621 721 754 b 694 881 718 874 711 881 z m 482 964 l 397 1151 b 365 1171 392 1165 382 1171 l 231 1171 b 218 1149 213 1171 210 1164 l 328 960 b 360 940 335 946 344 940 l 467 940 b 482 964 485 940 490 947 z "},"v":{"ha":724,"x_min":0,"x_max":0,"o":"m 258 -1 b 492 -1 335 -3 419 -3 b 519 22 507 0 515 7 b 714 856 601 299 675 640 b 692 882 717 872 710 881 b 518 882 636 883 575 883 b 492 858 503 881 494 874 b 397 308 465 686 431 472 b 371 294 394 289 381 285 b 256 858 331 460 286 686 b 229 881 253 874 244 881 b 32 882 168 883 93 883 b 13 856 14 881 8 872 b 229 21 63 613 147 271 b 258 -1 235 7 243 0 z "},"w":{"ha":1081,"x_min":0,"x_max":0,"o":"m 183 -1 b 378 -1 239 -3 318 -3 b 406 22 394 0 403 7 b 511 519 436 157 476 351 b 535 535 514 540 525 544 b 647 22 568 364 613 164 b 676 -1 651 7 660 0 b 885 -1 736 -3 818 -3 b 913 22 900 0 908 7 b 1076 854 971 242 1046 601 b 1053 882 1078 872 1071 881 b 879 881 1001 883 929 882 b 854 858 864 881 856 874 b 786 358 839 731 817 540 b 764 343 783 338 774 332 b 667 858 725 521 690 701 b 640 882 664 874 656 881 b 468 881 590 883 521 883 b 442 858 453 881 444 874 b 343 364 422 740 386 549 b 321 350 340 343 331 339 b 254 858 294 532 272 714 b 228 881 251 874 244 881 b 28 881 168 882 92 882 b 6 854 10 881 3 872 b 156 22 36 617 113 242 b 183 -1 160 7 168 0 z "},"ẃ":{"ha":1081,"x_min":0,"x_max":0,"o":"m 183 -1 b 378 -1 239 -3 318 -3 b 406 22 394 0 403 7 b 511 519 436 157 476 351 b 535 535 514 540 525 544 b 647 22 568 364 613 164 b 676 -1 651 7 660 0 b 885 -1 736 -3 818 -3 b 913 22 900 0 908 7 b 1076 854 971 242 1046 601 b 1053 882 1078 872 1071 881 b 879 881 1001 883 929 882 b 854 858 864 881 856 874 b 786 358 839 731 817 540 b 764 343 783 338 774 332 b 667 858 725 521 690 701 b 640 882 664 874 656 881 b 468 881 590 883 521 883 b 442 858 453 881 444 874 b 343 364 422 740 386 549 b 321 350 340 343 331 339 b 254 858 294 532 272 714 b 228 881 251 874 244 881 b 28 881 168 882 92 882 b 6 854 10 881 3 872 b 156 22 36 617 113 242 b 183 -1 160 7 168 0 z m 431 947 l 535 947 b 568 967 550 947 560 953 l 682 1156 b 669 1178 690 1172 688 1178 l 538 1178 b 506 1158 522 1178 513 1172 l 417 971 b 431 947 408 954 413 947 z "},"ŵ":{"ha":1081,"x_min":0,"x_max":0,"o":"m 183 -1 b 378 -1 239 -3 318 -3 b 406 22 394 0 403 7 b 511 519 436 157 476 351 b 535 535 514 540 525 544 b 647 22 568 364 613 164 b 676 -1 651 7 660 0 b 885 -1 736 -3 818 -3 b 913 22 900 0 908 7 b 1076 854 971 242 1046 601 b 1053 882 1078 872 1071 881 b 879 881 1001 883 929 882 b 854 858 864 881 856 874 b 786 358 839 731 817 540 b 764 343 783 338 774 332 b 667 858 725 521 690 701 b 640 882 664 874 656 881 b 468 881 590 883 521 883 b 442 858 453 881 444 874 b 343 364 422 740 386 549 b 321 350 340 343 331 339 b 254 858 294 532 272 714 b 228 881 251 874 244 881 b 28 881 168 882 92 882 b 6 854 10 881 3 872 b 156 22 36 617 113 242 b 183 -1 160 7 168 0 z m 426 1158 l 307 968 b 319 946 299 953 301 946 l 432 946 b 467 965 447 946 458 951 l 521 1049 l 572 965 b 606 946 581 951 592 946 l 718 946 b 731 968 736 946 739 953 l 614 1157 b 581 1176 606 1171 594 1176 l 461 1176 b 426 1158 446 1176 436 1171 z "},"ẅ":{"ha":1081,"x_min":0,"x_max":0,"o":"m 183 -1 b 378 -1 239 -3 318 -3 b 406 22 394 0 403 7 b 511 519 436 157 476 351 b 535 535 514 540 525 544 b 647 22 568 364 613 164 b 676 -1 651 7 660 0 b 885 -1 736 -3 818 -3 b 913 22 900 0 908 7 b 1076 854 971 242 1046 601 b 1053 882 1078 872 1071 881 b 879 881 1001 883 929 882 b 854 858 864 881 856 874 b 786 358 839 731 817 540 b 764 343 783 338 774 332 b 667 858 725 521 690 701 b 640 882 664 874 656 881 b 468 881 590 883 521 883 b 442 858 453 881 444 874 b 343 364 422 740 386 549 b 321 350 340 343 331 339 b 254 858 294 532 272 714 b 228 881 251 874 244 881 b 28 881 168 882 92 882 b 6 854 10 881 3 872 b 156 22 36 617 113 242 b 183 -1 160 7 168 0 z m 568 956 l 700 956 b 724 979 717 956 724 963 l 724 1114 b 700 1136 724 1131 717 1136 l 568 1136 b 544 1114 551 1136 544 1131 l 544 979 b 568 956 544 963 551 956 z m 344 956 l 475 956 b 499 979 490 956 499 963 l 499 1114 b 475 1136 499 1131 492 1136 l 344 1136 b 321 1114 329 1136 321 1131 l 321 979 b 344 956 321 963 328 956 z "},"ẁ":{"ha":1081,"x_min":0,"x_max":0,"o":"m 183 -1 b 378 -1 239 -3 318 -3 b 406 22 394 0 403 7 b 511 519 436 157 476 351 b 535 535 514 540 525 544 b 647 22 568 364 613 164 b 676 -1 651 7 660 0 b 885 -1 736 -3 818 -3 b 913 22 900 0 908 7 b 1076 854 971 242 1046 601 b 1053 882 1078 872 1071 881 b 879 881 1001 883 929 882 b 854 858 864 881 856 874 b 786 358 839 731 817 540 b 764 343 783 338 774 332 b 667 858 725 521 690 701 b 640 882 664 874 656 881 b 468 881 590 883 521 883 b 442 858 453 881 444 874 b 343 364 422 740 386 549 b 321 350 340 343 331 339 b 254 858 294 532 272 714 b 228 881 251 874 244 881 b 28 881 168 882 92 882 b 6 854 10 881 3 872 b 156 22 36 617 113 242 b 183 -1 160 7 168 0 z m 631 971 l 546 1158 b 514 1178 540 1172 531 1178 l 379 1178 b 367 1156 361 1178 358 1171 l 476 967 b 508 947 483 953 493 947 l 615 947 b 631 971 633 947 639 954 z "},"x":{"ha":739,"x_min":0,"x_max":0,"o":"m 28 0 l 218 0 b 247 22 233 0 242 7 b 332 293 269 100 303 206 b 365 306 336 310 356 313 b 468 22 400 219 443 110 b 497 0 472 7 481 0 b 711 0 567 -1 642 -1 b 729 25 729 0 735 7 b 554 463 675 178 599 360 b 556 494 550 474 550 483 b 717 857 606 593 665 740 b 701 881 725 874 719 881 l 510 881 b 481 858 494 881 485 874 b 403 628 460 792 431 703 b 368 615 397 611 376 608 b 281 860 338 694 310 781 b 250 881 275 874 265 881 b 32 881 178 882 104 882 b 15 857 14 881 8 874 b 175 486 67 725 138 571 b 176 453 181 475 181 464 b 11 25 129 340 49 136 b 28 0 6 7 10 0 z "},"y":{"ha":722,"x_min":0,"x_max":0,"o":"m 238 -282 b 488 -101 418 -282 447 -237 l 540 90 l 538 90 b 714 856 611 351 678 658 b 692 882 717 872 710 881 b 518 882 636 883 575 883 b 492 858 503 881 494 874 b 397 314 465 688 431 476 b 371 300 394 294 381 290 b 256 858 331 464 286 688 b 229 881 253 874 244 881 b 32 882 168 883 93 883 b 13 856 14 881 8 872 b 229 29 63 615 147 276 b 258 8 235 17 243 10 l 297 8 l 283 -49 b 224 -87 275 -79 264 -87 b 65 -85 168 -87 107 -87 b 42 -107 49 -85 42 -90 l 40 -250 b 64 -275 40 -265 47 -274 b 238 -282 107 -279 175 -282 z "},"ý":{"ha":722,"x_min":0,"x_max":0,"o":"m 238 -282 b 488 -101 418 -282 447 -237 l 540 90 l 538 90 b 714 856 611 351 678 658 b 692 882 717 872 710 881 b 518 882 636 883 575 883 b 492 858 503 881 494 874 b 397 314 465 688 431 476 b 371 300 394 294 381 290 b 256 858 331 464 286 688 b 229 881 253 874 244 881 b 32 882 168 883 93 883 b 13 856 14 881 8 872 b 229 29 63 615 147 276 b 258 8 235 17 243 10 l 297 8 l 283 -49 b 224 -87 275 -79 264 -87 b 65 -85 168 -87 107 -87 b 42 -107 49 -85 42 -90 l 40 -250 b 64 -275 40 -265 47 -274 b 238 -282 107 -279 175 -282 z m 278 947 l 382 947 b 415 967 397 947 407 953 l 529 1156 b 517 1178 538 1172 535 1178 l 385 1178 b 353 1158 369 1178 360 1172 l 264 971 b 278 947 256 954 260 947 z "},"ŷ":{"ha":722,"x_min":0,"x_max":0,"o":"m 238 -282 b 488 -101 418 -282 447 -237 l 540 90 l 538 90 b 714 856 611 351 678 658 b 692 882 717 872 710 881 b 518 882 636 883 575 883 b 492 858 503 881 494 874 b 397 314 465 688 431 476 b 371 300 394 294 381 290 b 256 858 331 464 286 688 b 229 881 253 874 244 881 b 32 882 168 883 93 883 b 13 856 14 881 8 872 b 229 29 63 615 147 276 b 258 8 235 17 243 10 l 297 8 l 283 -49 b 224 -87 275 -79 264 -87 b 65 -85 168 -87 107 -87 b 42 -107 49 -85 42 -90 l 40 -250 b 64 -275 40 -265 47 -274 b 238 -282 107 -279 175 -282 z m 274 1158 l 154 968 b 167 946 146 953 149 946 l 279 946 b 314 965 294 946 306 951 l 368 1049 l 419 965 b 453 946 428 951 439 946 l 565 946 b 578 968 583 946 586 953 l 461 1157 b 428 1176 453 1171 442 1176 l 308 1176 b 274 1158 293 1176 283 1171 z "},"ÿ":{"ha":722,"x_min":0,"x_max":0,"o":"m 238 -282 b 488 -101 418 -282 447 -237 l 540 90 l 538 90 b 714 856 611 351 678 658 b 692 882 717 872 710 881 b 518 882 636 883 575 883 b 492 858 503 881 494 874 b 397 314 465 688 431 476 b 371 300 394 294 381 290 b 256 858 331 464 286 688 b 229 881 253 874 244 881 b 32 882 168 883 93 883 b 13 856 14 881 8 872 b 229 29 63 615 147 276 b 258 8 235 17 243 10 l 297 8 l 283 -49 b 224 -87 275 -79 264 -87 b 65 -85 168 -87 107 -87 b 42 -107 49 -85 42 -90 l 40 -250 b 64 -275 40 -265 47 -274 b 238 -282 107 -279 175 -282 z m 415 956 l 547 956 b 571 979 564 956 571 963 l 571 1114 b 547 1136 571 1131 564 1136 l 415 1136 b 392 1114 399 1136 392 1131 l 392 979 b 415 956 392 963 399 956 z m 192 956 l 322 956 b 346 979 338 956 346 963 l 346 1114 b 322 1136 346 1131 339 1136 l 192 1136 b 168 1114 176 1136 168 1131 l 168 979 b 192 956 168 963 175 956 z "},"ỳ":{"ha":722,"x_min":0,"x_max":0,"o":"m 238 -282 b 488 -101 418 -282 447 -237 l 540 90 l 538 90 b 714 856 611 351 678 658 b 692 882 717 872 710 881 b 518 882 636 883 575 883 b 492 858 503 881 494 874 b 397 314 465 688 431 476 b 371 300 394 294 381 290 b 256 858 331 464 286 688 b 229 881 253 874 244 881 b 32 882 168 883 93 883 b 13 856 14 881 8 872 b 229 29 63 615 147 276 b 258 8 235 17 243 10 l 297 8 l 283 -49 b 224 -87 275 -79 264 -87 b 65 -85 168 -87 107 -87 b 42 -107 49 -85 42 -90 l 40 -250 b 64 -275 40 -265 47 -274 b 238 -282 107 -279 175 -282 z m 478 971 l 393 1158 b 361 1178 388 1172 378 1178 l 226 1178 b 214 1156 208 1178 206 1171 l 324 967 b 356 947 331 953 340 947 l 463 947 b 478 971 481 947 486 954 z "},"z":{"ha":665,"x_min":0,"x_max":0,"o":"m 54 0 l 614 0 b 638 24 629 0 638 7 l 638 169 b 614 193 638 186 631 193 l 351 192 b 339 213 333 192 331 199 b 613 671 401 325 533 543 b 625 715 621 685 625 697 l 625 857 b 601 881 625 874 618 881 l 57 881 b 33 857 40 881 33 874 l 33 711 b 57 688 33 694 40 688 l 308 689 b 321 668 325 689 329 682 b 42 201 246 542 113 329 b 31 157 35 188 31 174 l 31 24 b 54 0 31 7 38 0 z "}," ":{"ha":153,"x_min":0,"x_max":0,"o":""},".":{"ha":282,"x_min":0,"x_max":0,"o":"m 24 244 b 24 24 22 188 22 82 b 49 0 25 7 32 0 l 233 0 b 258 24 250 0 257 7 b 258 244 260 82 260 188 b 233 268 257 261 250 268 l 49 268 b 24 244 32 268 25 261 z "},",":{"ha":294,"x_min":0,"x_max":0,"o":"m 42 -233 l 140 -233 b 172 -212 156 -233 165 -226 l 261 -10 b 271 36 268 6 271 19 l 271 246 b 247 269 271 261 264 269 l 50 269 b 26 246 35 269 26 263 l 26 24 b 50 0 26 7 33 0 l 107 0 b 118 -17 119 0 124 -6 l 26 -210 b 42 -233 19 -225 24 -233 z "},":":{"ha":296,"x_min":0,"x_max":0,"o":"m 31 243 b 31 24 29 186 29 82 b 56 0 32 7 39 0 l 240 0 b 265 24 257 0 264 7 b 265 243 267 82 267 186 b 240 265 264 258 257 265 l 56 265 b 31 243 39 265 32 258 z m 31 782 b 31 564 29 726 29 621 b 56 540 32 547 39 540 l 240 540 b 265 564 257 540 264 547 b 265 782 267 621 267 726 b 240 806 264 799 257 806 l 56 806 b 31 782 39 806 32 799 z "},";":{"ha":307,"x_min":0,"x_max":0,"o":"m 47 -232 l 146 -232 b 178 -211 161 -232 171 -225 l 267 -10 b 276 36 274 6 276 19 l 276 244 b 253 267 276 258 269 267 l 56 267 b 32 244 40 267 32 260 l 32 24 b 56 0 32 7 39 0 l 113 0 b 124 -17 125 0 129 -6 l 32 -208 b 47 -232 25 -224 29 -232 z m 35 783 b 35 564 33 726 33 622 b 60 540 36 547 43 540 l 244 540 b 269 564 261 540 268 547 b 269 783 271 622 271 726 b 244 807 268 800 261 807 l 60 807 b 35 783 43 807 36 800 z "},"!":{"ha":396,"x_min":0,"x_max":0,"o":"m 300 349 l 324 744 b 325 792 325 761 325 775 l 328 1047 b 306 1071 328 1064 322 1071 l 92 1071 b 68 1047 75 1071 68 1064 l 71 792 b 72 744 71 775 71 761 l 94 349 b 119 326 94 333 103 326 l 275 326 b 300 349 292 326 300 332 z m 325 24 l 325 239 b 301 263 325 256 318 263 l 94 263 b 71 239 78 263 71 256 l 71 24 b 94 0 71 7 78 0 l 301 0 b 325 24 317 0 325 7 z "},"¡":{"ha":394,"x_min":0,"x_max":0,"o":"m 325 157 l 301 553 b 276 575 301 569 293 575 l 121 575 b 96 553 104 575 96 568 l 74 157 b 72 110 72 140 72 126 l 69 -146 b 93 -169 69 -162 76 -169 l 307 -169 b 329 -146 324 -169 329 -162 l 326 110 b 325 157 326 126 326 140 z m 326 663 l 326 878 b 303 901 326 894 318 901 l 96 901 b 72 878 79 901 72 894 l 72 663 b 96 639 72 646 79 639 l 303 639 b 326 663 319 639 326 646 z "},"?":{"ha":790,"x_min":0,"x_max":0,"o":"m 261 318 l 453 318 b 478 342 469 318 476 325 l 479 376 b 499 446 481 410 486 432 b 594 496 511 460 525 471 b 717 572 651 518 690 542 b 775 797 758 619 775 688 b 706 1024 775 903 750 979 b 399 1086 663 1064 582 1085 b 90 1019 218 1086 136 1064 b 7 746 46 975 21 906 b 28 722 6 729 11 722 l 242 726 b 267 750 257 726 265 733 b 299 867 274 825 282 851 b 397 890 313 882 336 890 b 496 869 457 890 481 883 b 515 786 511 857 515 829 b 496 707 515 742 510 724 b 413 657 481 689 446 672 b 278 579 343 633 303 607 b 232 417 243 542 228 492 l 236 342 b 261 318 238 326 244 318 z m 251 0 l 461 0 b 485 24 476 0 485 7 b 485 233 486 78 486 161 b 460 257 483 249 476 257 l 251 257 b 228 233 236 257 228 250 b 228 24 226 163 226 78 b 251 0 228 7 235 0 z "},"¿":{"ha":765,"x_min":0,"x_max":0,"o":"m 504 585 l 313 585 b 288 561 296 585 289 578 l 286 526 b 267 457 285 493 279 471 b 171 407 254 443 240 432 b 49 331 114 385 75 361 b -10 106 7 283 -10 215 b 60 -121 -10 0 15 -76 b 367 -183 103 -161 183 -182 b 675 -117 547 -183 629 -161 b 758 157 719 -72 744 -3 b 738 181 760 174 754 181 l 524 176 b 499 153 508 176 500 169 b 467 36 492 78 483 51 b 368 13 453 21 429 13 b 269 33 308 13 285 19 b 250 117 254 46 250 74 b 269 196 250 161 256 179 b 353 246 285 214 319 231 b 488 324 422 269 463 296 b 533 486 522 361 538 411 l 529 561 b 504 585 528 576 521 585 z m 514 903 l 304 903 b 281 879 289 903 281 896 b 281 669 279 825 279 742 b 306 646 282 654 289 646 l 514 646 b 538 669 529 646 538 653 b 538 879 539 740 539 825 b 514 903 538 896 531 903 z "},"•":{"ha":338,"x_min":0,"x_max":0,"o":"m 169 343 b 317 490 251 343 317 410 b 169 639 317 572 251 639 b 21 490 89 639 21 572 b 169 343 21 410 89 343 z "},"*":{"ha":654,"x_min":0,"x_max":0,"o":"m 233 461 l 317 608 b 339 608 325 624 331 624 l 422 463 b 453 456 431 449 440 446 l 583 554 b 586 585 596 564 597 572 l 451 725 l 636 775 b 650 803 651 779 656 788 l 590 949 b 561 958 585 964 575 967 l 426 883 b 408 896 411 875 407 879 l 428 1053 b 407 1076 429 1069 424 1076 l 246 1076 b 225 1053 231 1076 224 1069 l 244 897 b 226 885 246 881 242 876 l 94 958 b 65 949 81 967 71 964 l 4 804 b 17 776 -3 789 1 781 l 182 731 b 188 707 197 725 200 718 l 69 585 b 72 554 58 574 58 564 l 203 456 b 233 461 215 446 225 447 z "},"/":{"ha":418,"x_min":0,"x_max":0,"o":"m 429 1119 l 286 1119 b 257 1097 269 1119 261 1113 l -61 -246 b -42 -271 -65 -262 -60 -271 l 104 -271 b 132 -249 119 -271 128 -264 l 449 1094 b 429 1119 453 1113 447 1119 z "},"\\":{"ha":418,"x_min":0,"x_max":0,"o":"m 132 1119 l -11 1119 b -31 1094 -29 1119 -35 1113 l 286 -249 b 314 -271 290 -264 299 -271 l 460 -271 b 479 -246 478 -271 483 -262 l 161 1097 b 132 1119 157 1113 149 1119 z "},"-":{"ha":482,"x_min":0,"x_max":0,"o":"m 22 565 b 22 422 21 518 21 468 b 47 399 24 407 31 399 l 435 399 b 460 422 451 399 458 406 b 460 565 461 468 461 518 b 435 589 458 581 451 589 l 47 589 b 22 565 31 589 24 582 z "},"–":{"ha":529,"x_min":0,"x_max":0,"o":"m 22 628 b 22 486 21 582 21 532 b 46 463 22 469 29 463 l 483 463 b 507 486 500 463 507 469 b 507 628 508 532 508 582 b 483 651 507 644 500 651 l 46 651 b 22 628 31 651 22 644 z "},"—":{"ha":983,"x_min":0,"x_max":0,"o":"m 22 571 l 22 424 b 47 400 24 407 31 400 l 936 400 b 961 424 953 400 960 407 l 961 571 b 936 594 960 586 953 594 l 47 594 b 22 571 31 594 24 588 z "},"(":{"ha":364,"x_min":0,"x_max":0,"o":"m 192 -264 l 315 -264 b 332 -242 332 -264 338 -258 b 253 403 285 -92 253 144 b 332 1049 253 643 285 896 b 315 1071 336 1064 332 1071 l 192 1071 b 160 1050 176 1071 167 1064 b 43 404 85 878 43 650 b 160 -243 43 154 85 -74 b 192 -264 167 -258 176 -264 z "},")":{"ha":364,"x_min":0,"x_max":0,"o":"m 172 1069 l 49 1069 b 32 1047 32 1069 26 1064 b 111 403 79 897 111 661 b 32 -243 111 163 79 -90 b 49 -265 28 -258 32 -265 l 172 -265 b 204 -244 188 -265 197 -258 b 321 401 279 -72 321 156 b 204 1049 321 651 279 879 b 172 1069 197 1064 188 1069 z "},"{":{"ha":435,"x_min":0,"x_max":0,"o":"m 338 -236 l 396 -236 b 419 -212 413 -236 419 -229 l 419 -79 b 396 -56 419 -62 413 -56 l 393 -56 b 328 42 346 -56 326 -24 l 338 213 b 271 414 340 318 317 368 b 269 467 256 431 256 450 b 338 667 317 517 340 565 l 328 786 b 393 894 325 849 342 894 l 396 894 b 419 918 413 894 419 901 l 419 1049 b 396 1072 419 1065 413 1072 l 339 1072 b 83 832 146 1072 79 982 l 94 667 b 42 533 96 604 88 564 b 22 497 28 525 22 514 l 22 383 b 42 349 22 368 28 357 b 94 207 88 318 96 276 l 83 -7 b 338 -236 81 -162 156 -236 z "},"}":{"ha":435,"x_min":0,"x_max":0,"o":"m 39 -236 l 97 -236 b 351 -7 279 -236 354 -162 l 340 207 b 393 349 339 276 347 318 b 413 383 407 357 413 368 l 413 497 b 393 533 413 514 407 525 b 340 667 347 564 339 604 l 351 832 b 96 1072 356 982 289 1072 l 39 1072 b 15 1049 22 1072 15 1065 l 15 918 b 39 894 15 901 22 894 l 42 894 b 107 786 93 894 110 849 l 97 667 b 165 467 94 565 118 517 b 164 414 179 450 179 431 b 97 213 118 368 94 318 l 107 42 b 42 -56 108 -24 89 -56 l 39 -56 b 15 -79 22 -56 15 -62 l 15 -212 b 39 -236 15 -229 22 -236 z "},"[":{"ha":389,"x_min":0,"x_max":0,"o":"m 354 -199 l 354 -78 b 332 -54 354 -61 349 -54 l 275 -54 b 257 -36 264 -54 257 -49 l 257 882 b 275 900 257 893 263 900 l 332 900 b 354 924 347 900 354 907 l 354 1047 b 332 1071 354 1064 349 1071 l 92 1071 b 68 1047 75 1071 68 1064 l 68 -199 b 92 -222 68 -215 75 -222 l 332 -222 b 354 -199 347 -222 354 -215 z "},"]":{"ha":388,"x_min":0,"x_max":0,"o":"m 33 -78 l 33 -199 b 56 -222 33 -215 40 -222 l 296 -222 b 319 -199 313 -222 319 -215 l 319 1047 b 296 1071 319 1064 313 1071 l 56 1071 b 33 1047 39 1071 33 1064 l 33 924 b 56 900 33 907 40 900 l 113 900 b 131 882 125 900 131 893 l 131 -36 b 113 -54 131 -49 124 -54 l 56 -54 b 33 -78 39 -54 33 -61 z "},"“":{"ha":579,"x_min":0,"x_max":0,"o":"m 246 1071 l 147 1071 b 115 1050 132 1071 122 1064 l 26 847 b 17 801 19 832 17 818 l 17 592 b 40 568 17 576 24 568 l 238 568 b 261 592 253 568 261 575 l 261 814 b 238 838 261 831 254 838 l 181 838 b 169 854 168 838 164 843 l 261 1047 b 246 1071 268 1063 264 1071 z m 538 1071 l 439 1071 b 407 1050 424 1071 414 1064 l 318 847 b 308 801 311 832 308 818 l 308 592 b 332 568 308 576 315 568 l 529 568 b 553 592 544 568 553 575 l 553 814 b 529 838 553 831 546 838 l 472 838 b 461 854 460 838 456 843 l 553 1047 b 538 1071 560 1063 556 1071 z "},"”":{"ha":579,"x_min":0,"x_max":0,"o":"m 333 568 l 432 568 b 464 589 447 568 457 575 l 553 792 b 563 838 560 807 563 821 l 563 1047 b 539 1071 563 1063 556 1071 l 342 1071 b 318 1047 326 1071 318 1064 l 318 825 b 342 801 318 808 325 801 l 399 801 b 410 785 411 801 415 796 l 318 592 b 333 568 311 576 315 568 z m 42 568 l 140 568 b 172 589 156 568 165 575 l 261 792 b 271 838 268 807 271 821 l 271 1047 b 247 1071 271 1063 264 1071 l 50 1071 b 26 1047 35 1071 26 1064 l 26 825 b 50 801 26 808 33 801 l 107 801 b 118 785 119 801 124 796 l 26 592 b 42 568 19 576 24 568 z "},"‘":{"ha":288,"x_min":0,"x_max":0,"o":"m 246 1071 l 147 1071 b 115 1050 132 1071 122 1064 l 26 847 b 17 801 19 832 17 818 l 17 592 b 40 568 17 576 24 568 l 238 568 b 261 592 253 568 261 575 l 261 814 b 238 838 261 831 254 838 l 181 838 b 169 854 168 838 164 843 l 261 1047 b 246 1071 268 1063 264 1071 z "},"’":{"ha":288,"x_min":0,"x_max":0,"o":"m 42 568 l 140 568 b 172 589 156 568 165 575 l 261 792 b 271 838 268 807 271 821 l 271 1047 b 247 1071 271 1063 264 1071 l 50 1071 b 26 1047 35 1071 26 1064 l 26 825 b 50 801 26 808 33 801 l 107 801 b 118 785 119 801 124 796 l 26 592 b 42 568 19 576 24 568 z "},"\"":{"ha":419,"x_min":0,"x_max":0,"o":"m 171 1071 l 51 1071 b 29 1047 38 1071 29 1064 l 29 913 b 31 865 29 897 29 882 l 39 669 b 63 646 40 653 47 646 l 157 646 b 182 669 172 646 181 653 l 192 865 l 193 913 l 193 1047 b 171 1071 193 1064 188 1071 z m 378 1071 l 258 1071 b 236 1047 244 1071 236 1064 l 236 913 b 238 865 236 897 236 882 l 246 669 b 269 646 247 653 254 646 l 364 646 b 389 669 379 646 388 653 l 399 865 l 400 913 l 400 1047 b 378 1071 400 1064 394 1071 z "},"'":{"ha":217,"x_min":0,"x_max":0,"o":"m 175 1071 l 53 1071 b 29 1047 38 1071 29 1064 l 29 913 b 31 865 29 897 29 882 l 39 669 b 64 646 40 653 47 646 l 161 646 b 186 669 176 646 185 653 l 197 865 l 199 913 l 199 1047 b 175 1071 199 1064 192 1071 z "},"@":{"ha":1121,"x_min":0,"x_max":0,"o":"m 558 -189 b 888 -158 703 -189 796 -179 b 896 -146 893 -157 896 -153 l 896 -97 b 881 -85 896 -87 889 -82 b 558 -117 799 -104 710 -117 b 201 -36 331 -117 251 -86 b 121 464 153 13 121 82 b 207 951 121 825 158 903 b 571 1031 257 1003 336 1031 b 922 953 792 1031 872 1003 b 1001 464 971 904 1001 824 b 922 97 1001 129 972 97 b 876 153 893 97 876 113 l 878 482 b 875 878 878 646 876 790 b 851 901 875 894 868 901 l 683 901 b 658 878 668 901 660 894 l 656 850 b 628 840 653 828 644 825 b 460 917 578 893 535 917 b 285 865 375 917 318 900 b 215 451 238 818 215 747 b 281 42 215 149 238 86 b 457 -8 311 11 361 -8 b 610 38 511 -8 560 6 b 661 71 636 56 647 71 b 689 47 672 71 676 61 b 839 -15 717 11 750 -15 b 1078 464 1008 -15 1078 31 b 976 1004 1078 840 1038 942 b 563 1099 917 1064 815 1099 b 153 1004 311 1099 211 1064 b 44 464 92 940 44 842 b 147 -94 44 71 86 -31 b 558 -189 206 -153 306 -189 z m 531 186 b 471 210 500 186 483 194 b 449 457 454 226 449 264 b 474 699 449 642 454 679 b 540 719 486 713 506 719 b 615 683 568 719 594 704 b 651 456 642 656 651 628 b 614 229 651 281 642 258 b 531 186 588 204 564 186 z "},"&":{"ha":911,"x_min":0,"x_max":0,"o":"m 344 -15 b 564 49 454 -15 489 -1 b 599 43 578 58 589 57 l 618 18 b 654 0 628 6 639 0 l 879 0 b 892 22 897 0 901 6 l 783 211 l 864 622 b 843 647 867 639 861 647 l 649 647 b 622 625 633 647 625 642 l 593 461 l 392 728 b 351 831 364 771 351 794 b 365 875 351 851 357 865 b 454 893 378 888 397 893 b 542 871 510 893 529 885 b 569 800 553 860 561 839 b 599 778 574 785 582 778 l 803 779 b 824 803 819 779 826 786 b 749 1013 810 914 785 976 b 450 1086 704 1058 632 1085 b 154 1021 275 1086 201 1068 b 96 843 117 983 96 922 b 158 629 96 756 115 701 b 153 592 167 614 165 603 b 35 308 61 504 35 440 b 92 43 35 160 50 85 b 344 -15 133 0 197 -15 z m 378 174 b 313 194 343 174 326 179 b 288 325 297 208 288 243 b 308 429 288 396 296 418 b 333 422 315 436 325 433 l 453 246 b 450 208 463 232 461 221 b 378 174 425 183 404 174 z "},"©":{"ha":990,"x_min":0,"x_max":0,"o":"m 497 -42 b 850 46 697 -42 789 -17 b 949 529 913 108 949 226 b 850 1008 949 825 913 944 b 497 1094 789 1069 696 1094 b 143 1007 297 1094 204 1069 b 43 529 81 943 43 825 b 143 46 43 229 81 110 b 497 -42 204 -17 299 -42 z m 497 10 b 183 85 318 10 238 32 b 100 529 132 136 100 242 b 183 968 100 813 132 917 b 497 1043 236 1021 318 1043 b 810 968 675 1043 757 1021 b 892 529 861 918 892 814 b 811 85 892 240 861 135 b 497 10 758 32 675 10 z m 499 101 b 750 161 650 101 714 124 b 810 436 786 199 803 251 b 790 460 811 450 806 458 b 619 461 743 461 665 463 b 597 439 606 461 597 454 b 572 290 592 338 586 306 b 500 272 563 281 546 272 b 424 290 460 272 438 278 b 399 524 407 307 399 351 b 426 760 399 688 408 742 b 499 779 439 772 457 779 b 569 761 543 779 560 771 b 599 636 582 747 590 719 b 622 615 600 621 607 615 b 793 615 669 614 743 614 b 814 636 807 615 814 621 b 747 893 803 796 785 856 b 499 949 714 925 650 949 b 256 892 356 949 293 929 b 186 526 213 846 186 754 b 251 161 186 294 208 206 b 499 101 289 124 346 101 z "},"®":{"ha":467,"x_min":0,"x_max":0,"o":"m 235 607 b 408 647 344 607 385 624 b 454 847 436 675 454 731 b 407 1046 454 964 435 1017 b 235 1086 383 1069 344 1086 b 60 1046 124 1086 83 1069 b 13 847 32 1017 13 963 b 60 647 13 732 32 676 b 235 607 83 624 124 607 z m 235 651 b 94 679 140 651 113 663 b 61 847 72 700 61 751 b 93 1014 61 944 72 993 b 235 1042 111 1032 140 1042 b 374 1014 328 1042 356 1032 b 407 847 394 994 407 943 b 375 679 407 750 396 700 b 235 651 357 663 328 651 z m 122 699 l 185 699 b 193 706 190 699 193 701 b 193 794 192 733 192 761 l 243 794 b 267 788 256 794 263 792 b 275 760 272 782 275 772 l 275 704 b 282 699 275 700 278 699 l 349 699 b 356 707 354 699 356 701 l 356 767 b 340 822 356 793 353 811 b 332 835 336 826 332 831 b 344 853 332 840 336 843 b 361 911 354 864 361 879 b 342 982 361 951 356 969 b 263 1001 328 996 304 1001 l 122 1001 b 114 993 117 1001 114 997 b 114 706 113 922 113 779 b 122 699 114 701 117 699 z m 247 858 l 192 858 l 193 940 l 249 940 b 272 933 260 940 268 939 b 279 901 276 929 279 919 b 271 865 279 879 275 869 b 247 858 265 861 260 858 z "},"™":{"ha":528,"x_min":0,"x_max":0,"o":"m 89 771 l 147 771 b 154 776 151 771 154 772 l 153 1014 l 217 1013 b 224 1018 221 1013 224 1014 l 222 1067 b 215 1071 222 1069 219 1071 l 17 1071 b 10 1067 14 1071 10 1069 l 10 1018 b 15 1014 10 1014 11 1014 l 83 1014 l 82 776 b 89 771 82 772 85 771 z m 249 771 l 293 771 b 299 776 297 771 299 772 l 299 971 b 301 976 299 975 299 976 b 304 971 303 976 304 974 b 336 776 314 897 326 831 b 342 771 336 772 338 771 l 389 771 b 396 776 394 771 394 772 b 426 971 406 832 417 890 b 431 976 426 975 428 976 b 433 971 433 976 433 975 l 433 776 b 439 771 433 772 435 771 l 497 771 b 503 776 500 771 503 772 l 503 1064 b 496 1071 503 1068 500 1071 l 415 1071 b 408 1064 411 1071 410 1068 b 379 876 399 1003 389 956 b 376 871 379 874 378 871 b 372 876 374 871 374 874 b 344 1064 364 953 354 1011 b 339 1071 344 1068 343 1071 l 249 1071 b 243 1064 246 1071 243 1068 l 243 776 b 249 771 243 772 246 771 z "},"$":{"ha":838,"x_min":0,"x_max":0,"o":"m 401 -82 l 454 -82 b 478 -58 471 -82 478 -75 l 476 6 b 740 69 626 8 700 29 b 808 307 785 113 808 190 b 743 567 808 446 790 517 b 478 653 703 608 643 624 b 313 703 353 676 328 686 b 292 786 297 721 292 747 b 313 871 292 828 299 856 b 421 892 328 883 356 890 b 528 869 486 893 513 883 b 557 767 540 857 549 831 b 583 744 560 753 567 744 l 783 747 b 806 769 799 747 807 754 b 735 1010 796 894 774 968 b 476 1071 694 1050 624 1067 l 478 1133 b 454 1157 478 1150 471 1157 l 401 1157 b 378 1133 385 1157 378 1151 l 379 1071 b 114 1004 232 1067 156 1044 b 40 772 68 958 40 879 b 104 538 40 658 61 579 b 351 450 146 494 224 472 b 532 401 474 429 513 419 b 558 299 550 381 557 350 b 536 207 558 251 553 224 b 426 186 522 192 493 186 b 321 210 363 186 338 194 b 288 333 306 225 299 257 b 261 356 286 349 278 356 l 58 356 b 36 335 43 356 35 350 b 110 72 44 192 69 111 b 379 4 151 31 232 8 l 379 -58 b 401 -82 379 -75 385 -82 z "},"¥":{"ha":860,"x_min":0,"x_max":0,"o":"m 29 593 b 29 465 28 553 28 506 b 54 442 29 449 38 442 l 292 442 l 311 401 b 317 382 314 394 315 389 l 53 382 b 29 358 36 382 29 375 b 29 231 28 318 28 271 b 54 207 29 214 38 207 l 318 207 l 319 24 b 343 0 319 8 326 0 b 554 0 401 -1 497 -1 b 576 24 569 0 576 7 l 575 207 l 800 207 b 825 231 817 207 824 214 l 825 358 b 800 382 824 375 817 382 l 574 382 b 581 397 575 388 578 392 l 604 442 l 800 442 b 825 465 817 442 824 449 l 824 593 b 800 617 824 610 817 617 l 692 617 b 864 1046 767 774 826 926 b 844 1071 868 1063 863 1071 b 647 1072 782 1074 700 1074 b 618 1049 631 1071 622 1064 b 481 706 586 953 529 807 b 440 696 474 692 449 690 b 294 1050 389 799 335 935 b 264 1071 289 1064 279 1071 b 39 1071 196 1072 122 1072 b 19 1046 21 1071 15 1063 b 206 617 56 932 129 772 l 53 617 b 29 593 36 617 29 610 z "},"+":{"ha":711,"x_min":0,"x_max":0,"o":"m 22 647 b 22 515 21 601 21 560 b 46 492 22 500 29 492 l 258 492 l 258 256 b 282 231 258 239 265 232 l 429 231 b 453 256 444 232 453 239 l 453 492 l 665 492 b 689 515 681 492 689 499 l 689 647 b 665 669 689 663 682 669 l 453 669 l 453 907 b 429 932 453 924 446 931 l 282 932 b 258 907 267 931 258 924 l 258 669 l 46 669 b 22 647 31 669 22 664 z "},"%":{"ha":996,"x_min":0,"x_max":0,"o":"m 240 551 b 421 590 351 551 399 569 b 469 818 450 618 469 657 b 419 1050 469 982 450 1022 b 239 1089 397 1071 351 1089 b 57 1050 124 1089 79 1069 b 6 818 26 1021 6 981 b 56 590 6 657 26 618 b 240 551 78 569 125 551 z m 238 686 b 197 697 215 686 203 690 b 182 819 188 704 182 718 b 197 944 182 922 189 936 b 239 954 204 951 217 954 b 279 944 260 954 272 950 b 293 819 288 938 293 922 b 279 697 293 718 288 704 b 238 686 274 692 261 686 z m 882 1071 l 767 1071 b 732 1051 751 1071 740 1065 l 104 22 b 117 0 94 7 99 0 l 233 0 b 267 19 249 0 258 6 l 894 1049 b 882 1071 904 1064 900 1071 z m 761 -14 b 942 25 872 -14 919 4 b 990 253 971 53 990 92 b 940 485 990 417 971 457 b 760 524 918 506 872 524 b 578 485 644 524 600 504 b 526 253 547 456 526 415 b 576 25 526 92 547 53 b 761 -14 599 4 646 -14 z m 758 121 b 718 132 736 121 724 125 b 703 254 708 139 703 153 b 718 379 703 357 710 371 b 760 389 725 386 738 389 b 800 379 781 389 793 385 b 814 254 808 372 814 357 b 800 132 814 153 808 139 b 758 121 794 126 782 121 z "},"̈":{"ha":0,"x_min":0,"x_max":0,"o":"m 261 968 l 396 968 b 419 992 413 968 419 975 l 419 1129 b 396 1153 419 1146 413 1153 l 261 1153 b 238 1129 244 1153 238 1146 l 238 992 b 261 968 238 975 244 968 z m 33 968 l 167 968 b 190 992 182 968 190 975 l 190 1129 b 167 1153 190 1146 183 1153 l 33 1153 b 10 1129 18 1153 10 1146 l 10 992 b 33 968 10 975 17 968 z "},"̇":{"ha":0,"x_min":0,"x_max":0,"o":"m 171 1150 l 33 1150 b 10 1126 18 1150 10 1143 l 10 992 b 33 968 10 976 17 968 l 171 968 b 194 992 188 968 194 975 l 194 1126 b 171 1150 194 1142 188 1150 z "},"̀":{"ha":0,"x_min":0,"x_max":0,"o":"m 281 983 l 194 1175 b 163 1194 189 1189 179 1194 l 25 1194 b 13 1172 7 1194 4 1188 l 124 979 b 157 960 131 965 142 960 l 265 960 b 281 983 283 960 289 967 z "},"́":{"ha":0,"x_min":0,"x_max":0,"o":"m 10 960 l 115 960 b 150 979 131 960 142 965 l 265 1172 b 253 1194 274 1189 271 1194 l 118 1194 b 86 1175 103 1194 93 1189 l -4 983 b 10 960 -12 967 -8 960 z "},"̋":{"ha":0,"x_min":0,"x_max":0,"o":"m 32 958 l 136 958 b 168 979 151 958 161 964 l 261 1171 b 247 1194 269 1188 265 1194 l 117 1194 b 86 1174 101 1194 92 1188 l 15 982 b 32 958 8 965 14 958 z m 231 958 l 339 958 b 372 978 354 958 365 964 l 481 1172 b 467 1194 489 1188 485 1194 l 333 1194 b 301 1174 317 1194 307 1188 l 215 982 b 231 958 208 965 213 958 z "},"̂":{"ha":0,"x_min":0,"x_max":0,"o":"m 138 1175 l 15 981 b 28 958 7 965 10 958 l 143 958 b 178 978 158 958 169 964 l 232 1063 l 285 978 b 319 958 293 964 304 958 l 433 958 b 446 981 451 958 454 965 l 328 1174 b 293 1193 319 1188 308 1193 l 172 1193 b 138 1175 157 1193 147 1188 z "},"̌":{"ha":0,"x_min":0,"x_max":0,"o":"m 15 1172 l 138 978 b 172 960 147 965 157 960 l 293 960 b 328 979 308 960 319 965 l 446 1172 b 433 1194 454 1188 451 1194 l 319 1194 b 285 1175 304 1194 293 1189 l 232 1090 l 178 1175 b 143 1194 169 1189 158 1194 l 28 1194 b 15 1172 10 1194 7 1188 z "},"̆":{"ha":0,"x_min":0,"x_max":0,"o":"m 206 942 b 397 1101 311 942 383 1004 b 376 1125 399 1118 393 1125 l 261 1125 b 239 1101 246 1125 238 1118 b 206 1063 238 1074 225 1063 b 174 1101 188 1063 175 1074 b 150 1125 174 1118 167 1125 l 35 1125 b 13 1101 18 1125 11 1118 b 206 942 26 1006 90 942 z "},"̊":{"ha":0,"x_min":0,"x_max":0,"o":"m 179 931 b 344 1090 276 931 344 997 b 179 1249 344 1182 276 1249 b 13 1090 81 1249 13 1181 b 179 931 13 999 81 931 z m 179 1033 b 133 1090 151 1033 133 1054 b 179 1146 133 1125 151 1146 b 224 1090 206 1146 225 1125 b 179 1033 225 1054 206 1033 z "},"̃":{"ha":0,"x_min":0,"x_max":0,"o":"m 300 946 b 383 978 335 946 363 957 b 397 1018 393 990 397 1001 l 397 1108 b 379 1117 397 1126 392 1129 b 304 1090 354 1096 336 1090 b 219 1111 275 1090 250 1100 b 111 1138 189 1124 153 1138 b 26 1106 79 1138 49 1126 b 11 1067 17 1094 11 1082 l 11 974 b 31 965 11 956 18 953 b 107 992 58 988 76 992 b 193 971 136 992 163 982 b 300 946 224 958 260 946 z "},"̄":{"ha":0,"x_min":0,"x_max":0,"o":"m 378 1111 l 14 1111 b -10 1088 -1 1111 -10 1104 l -10 997 b 14 974 -10 981 -3 974 l 378 974 b 401 997 393 974 401 981 l 401 1088 b 378 1111 401 1104 394 1111 z "},"̒":{"ha":0,"x_min":0,"x_max":0,"o":"m 157 1282 l 85 1282 b 53 1261 69 1282 60 1276 l -11 1118 b -21 1074 -18 1104 -21 1090 l -21 972 b 3 949 -21 957 -14 949 l 147 949 b 171 972 163 949 171 956 l 171 1099 b 147 1122 171 1115 164 1122 l 108 1122 l 172 1258 b 157 1282 179 1275 175 1282 z "},"̦":{"ha":0,"x_min":0,"x_max":0,"o":"m 32 -385 l 104 -385 b 136 -364 119 -385 129 -379 l 200 -221 b 210 -176 207 -207 210 -193 l 210 -75 b 186 -51 210 -60 203 -51 l 42 -51 b 18 -75 26 -51 18 -58 l 18 -201 b 42 -225 18 -218 25 -225 l 81 -225 l 17 -361 b 32 -385 10 -378 14 -385 z "},"̧":{"ha":0,"x_min":0,"x_max":0,"o":"m 214 22 l 106 22 b 74 1 90 22 81 17 l -8 -201 b 8 -226 -15 -218 -10 -226 l 139 -226 b 168 -204 154 -226 164 -219 l 232 -3 b 214 22 238 15 232 22 z "},"̨":{"ha":0,"x_min":0,"x_max":0,"o":"m 143 -235 l 201 -235 b 225 -211 218 -235 225 -228 l 224 -126 b 200 -103 224 -110 217 -103 l 168 -103 b 138 -79 147 -103 138 -97 b 192 0 138 -54 153 -33 l 164 58 b -17 -114 68 17 -17 -17 b 143 -235 -17 -199 51 -235 z "},"̵":{"ha":0,"x_min":0,"x_max":0,"o":"m 35 376 l 408 376 b 432 400 425 376 432 382 l 432 508 b 408 532 432 525 425 532 l 35 532 b 11 508 19 532 11 525 l 11 400 b 35 376 11 383 18 376 z "},"̷":{"ha":0,"x_min":0,"x_max":0,"o":"m -15 353 l -15 233 b 4 224 -15 215 -10 213 l 301 461 b 319 497 314 471 319 482 l 319 617 b 299 626 319 633 313 638 l 3 389 b -15 353 -10 379 -15 368 z "},"̸":{"ha":0,"x_min":0,"x_max":0,"o":"m 426 1136 l 350 1136 b 321 1114 335 1136 325 1129 l -56 -119 b -37 -144 -61 -137 -56 -144 l 40 -144 b 69 -124 56 -144 64 -137 l 444 1111 b 426 1136 450 1128 444 1136 z "},"¨":{"ha":428,"x_min":0,"x_max":0,"o":"m 261 968 l 396 968 b 419 992 413 968 419 975 l 419 1129 b 396 1153 419 1146 413 1153 l 261 1153 b 238 1129 244 1153 238 1146 l 238 992 b 261 968 238 975 244 968 z m 33 968 l 167 968 b 190 992 182 968 190 975 l 190 1129 b 167 1153 190 1146 183 1153 l 33 1153 b 10 1129 18 1153 10 1146 l 10 992 b 33 968 10 975 17 968 z "},"˙":{"ha":204,"x_min":0,"x_max":0,"o":"m 171 1150 l 33 1150 b 10 1126 18 1150 10 1143 l 10 992 b 33 968 10 976 17 968 l 171 968 b 194 992 188 968 194 975 l 194 1126 b 171 1150 194 1142 188 1150 z "},"`":{"ha":296,"x_min":0,"x_max":0,"o":"m 281 983 l 194 1175 b 163 1194 189 1189 179 1194 l 25 1194 b 13 1172 7 1194 4 1188 l 124 979 b 157 960 131 965 142 960 l 265 960 b 281 983 283 960 289 967 z "},"´":{"ha":256,"x_min":0,"x_max":0,"o":"m 10 960 l 115 960 b 150 979 131 960 142 965 l 265 1172 b 253 1194 274 1189 271 1194 l 118 1194 b 86 1175 103 1194 93 1189 l -4 983 b 10 960 -12 967 -8 960 z "},"˝":{"ha":496,"x_min":0,"x_max":0,"o":"m 32 958 l 136 958 b 168 979 151 958 161 964 l 261 1171 b 247 1194 269 1188 265 1194 l 117 1194 b 86 1174 101 1194 92 1188 l 15 982 b 32 958 8 965 14 958 z m 231 958 l 339 958 b 372 978 354 958 365 964 l 481 1172 b 467 1194 489 1188 485 1194 l 333 1194 b 301 1174 317 1194 307 1188 l 215 982 b 231 958 208 965 213 958 z "},"ˆ":{"ha":460,"x_min":0,"x_max":0,"o":"m 138 1175 l 15 981 b 28 958 7 965 10 958 l 143 958 b 178 978 158 958 169 964 l 232 1063 l 285 978 b 319 958 293 964 304 958 l 433 958 b 446 981 451 958 454 965 l 328 1174 b 293 1193 319 1188 308 1193 l 172 1193 b 138 1175 157 1193 147 1188 z "},"ˇ":{"ha":460,"x_min":0,"x_max":0,"o":"m 15 1172 l 138 978 b 172 960 147 965 157 960 l 293 960 b 328 979 308 960 319 965 l 446 1172 b 433 1194 454 1188 451 1194 l 319 1194 b 285 1175 304 1194 293 1189 l 232 1090 l 178 1175 b 143 1194 169 1189 158 1194 l 28 1194 b 15 1172 10 1194 7 1188 z "},"˘":{"ha":408,"x_min":0,"x_max":0,"o":"m 206 942 b 397 1101 311 942 383 1004 b 376 1125 399 1118 393 1125 l 261 1125 b 239 1101 246 1125 238 1118 b 206 1063 238 1074 225 1063 b 174 1101 188 1063 175 1074 b 150 1125 174 1118 167 1125 l 35 1125 b 13 1101 18 1125 11 1118 b 206 942 26 1006 90 942 z "},"˚":{"ha":356,"x_min":0,"x_max":0,"o":"m 179 931 b 344 1090 276 931 344 997 b 179 1249 344 1182 276 1249 b 13 1090 81 1249 13 1181 b 179 931 13 999 81 931 z m 179 1033 b 133 1090 151 1033 133 1054 b 179 1146 133 1125 151 1146 b 224 1090 206 1146 225 1125 b 179 1033 225 1054 206 1033 z "},"˜":{"ha":408,"x_min":0,"x_max":0,"o":"m 300 946 b 383 978 335 946 363 957 b 397 1018 393 990 397 1001 l 397 1108 b 379 1117 397 1126 392 1129 b 304 1090 354 1096 336 1090 b 219 1111 275 1090 250 1100 b 111 1138 189 1124 153 1138 b 26 1106 79 1138 49 1126 b 11 1067 17 1094 11 1082 l 11 974 b 31 965 11 956 18 953 b 107 992 58 988 76 992 b 193 971 136 992 163 982 b 300 946 224 958 260 946 z "},"¯":{"ha":374,"x_min":0,"x_max":0,"o":"m 378 1111 l 14 1111 b -10 1088 -1 1111 -10 1104 l -10 997 b 14 974 -10 981 -3 974 l 378 974 b 401 997 393 974 401 981 l 401 1088 b 378 1111 401 1104 394 1111 z "},"¸":{"ha":268,"x_min":0,"x_max":0,"o":"m 214 22 l 106 22 b 74 1 90 22 81 17 l -8 -201 b 8 -226 -15 -218 -10 -226 l 139 -226 b 168 -204 154 -226 164 -219 l 232 -3 b 214 22 238 15 232 22 z "},"˛":{"ha":214,"x_min":0,"x_max":0,"o":"m 143 -235 l 201 -235 b 225 -211 218 -235 225 -228 l 224 -126 b 200 -103 224 -110 217 -103 l 168 -103 b 138 -79 147 -103 138 -97 b 192 0 138 -54 153 -33 l 164 58 b -17 -114 68 17 -17 -17 b 143 -235 -17 -199 51 -235 z "},"⁄":{"ha":51,"x_min":0,"x_max":0,"o":"m 411 1071 l 296 1071 b 261 1051 281 1071 269 1065 l -367 22 b -354 0 -376 7 -372 0 l -237 0 b -204 19 -222 0 -212 6 l 424 1049 b 411 1071 433 1064 429 1071 z "}}}
